  0
SECTION
  2
HEADER
  9
$INSBASE
 10
0.0000
 20
0.0000
  9
$EXTMIN
 10
-46.308658451036351
 20
-45.908658451036509
  9
$EXTMAX
 10
46.308658451036351
 20
46.708658451036506
  9
$LIMMIN
 10
-46.308658451036351
 20
-45.908658451036509
  9
$LIMMAX
 10
46.308658451036351
 20
46.708658451036506
  9
$TEXTSTYLE
  7
STANDARD
  9
$CLAYER
  8
default
  0
ENDSEC
  0
SECTION
  2
TABLES
  0
TABLE
  2
LTYPE
 70
4948253
  0
LTYPE
  2
CONTINUOUS
 70
    64
  3
Solid line
 72
    65
 73
     0
 40
0.0
  0
ENDTAB
  0
TABLE
  2
LAYER
 70
     5
  0
LAYER
  2
default
 70
    64
 62
     7
  6
CONTINUOUS
  0
LAYER
  2
layer1
 70
    64
 62
     7
  6
CONTINUOUS
  0
ENDTAB
  0
TABLE
  2
STYLE
 70
     1
  0
STYLE
  2
STANDARD
 70
     0
 40
0.0
 41
1.0
 50
0.0
 71
     0
 42
0.2
  3
txt
  4

  0
ENDTAB
  0
TABLE
  2
VIEW
 70
     0
  0
ENDTAB
  0
ENDSEC
  0
SECTION
  2
BLOCKS
  0
ENDSEC
  0
SECTION
  2
ENTITIES
  0
LINE
  8
layer1
 10
-0.45000020135449059
 20
22.495499950621209
 30
0.0
 11
-0.45000038986579671
 21
23.050000033994486
 31
0.0
  0
LINE
  8
layer1
 10
-0.45000038986579671
 20
23.050000033994486
 30
0.0
 11
-3.0399999783229936
 21
25.019999932444367
 31
0.0
  0
LINE
  8
layer1
 10
-3.0399999783229936
 20
25.019999932444367
 30
0.0
 11
-5.9299994862028411
 21
36.529999752758322
 31
0.0
  0
LINE
  8
layer1
 10
0.44999952689990641
 20
22.495500023359021
 30
0.0
 11
0.45000030431442672
 21
23.050000365551341
 31
0.0
  0
LINE
  8
layer1
 10
0.45000030431442672
 20
23.050000365551341
 30
0.0
 11
3.0400000519106398
 21
25.019999727509756
 31
0.0
  0
LINE
  8
layer1
 10
3.0400000519106398
 20
25.019999727509756
 30
0.0
 11
5.9300002565980003
 21
36.529999554345416
 31
0.0
  0
LINE
  8
layer1
 10
-0.45000038986579671
 20
23.050000033994486
 30
0.0
 11
0.45000030431442672
 21
23.050000365551341
 31
0.0
  0
LINE
  8
layer1
 10
-11.637461581391705
 20
19.256674327392307
 30
0.0
 11
-11.914711786333923
 21
19.7368853917385
 31
0.0
  0
LINE
  8
layer1
 10
-11.914711786333923
 20
19.7368853917385
 30
0.0
 11
-15.142717174954036
 21
20.147955555020264
 31
0.0
  0
LINE
  8
layer1
 10
-15.142717174954036
 20
20.147955555020264
 30
0.0
 11
-23.400530075859486
 21
28.670908043026554
 31
0.0
  0
LINE
  8
layer1
 10
-10.858038989693211
 20
19.706674254512301
 30
0.0
 11
-11.135288487528648
 21
20.186886025965276
 31
0.0
  0
LINE
  8
layer1
 10
-11.135288487528648
 20
20.186886025965276
 30
0.0
 11
-9.8772825912942501
 21
23.187955392658502
 31
0.0
  0
LINE
  8
layer1
 10
-9.8772825912942501
 20
23.187955392658502
 30
0.0
 11
-13.129468910510596
 21
34.600907742596355
 31
0.0
  0
LINE
  8
layer1
 10
-11.914711786333923
 20
19.7368853917385
 30
0.0
 11
-11.135288487528648
 21
20.186886025965276
 31
0.0
  0
LINE
  8
layer1
 10
-19.706674528746795
 20
10.858038369229504
 30
0.0
 11
-20.1868857816043
 21
11.135288247660563
 31
0.0
  0
LINE
  8
layer1
 10
-20.1868857816043
 20
11.135288247660563
 30
0.0
 11
-23.187955533343256
 21
9.877282757490331
 31
0.0
  0
LINE
  8
layer1
 10
-23.187955533343256
 20
9.877282757490331
 30
0.0
 11
-34.600907529229389
 21
13.129469676898836
 31
0.0
  0
LINE
  8
layer1
 10
-19.256674727612388
 20
11.63746103366581
 30
0.0
 11
-19.736885721650843
 21
11.914711878022693
 31
0.0
  0
LINE
  8
layer1
 10
-19.736885721650843
 20
11.914711878022693
 30
0.0
 11
-20.14795534074786
 21
15.142717136215508
 31
0.0
  0
LINE
  8
layer1
 10
-20.14795534074786
 20
15.142717136215508
 30
0.0
 11
-28.670907485998352
 21
23.40053064383482
 31
0.0
  0
LINE
  8
layer1
 10
-20.1868857816043
 20
11.135288247660563
 30
0.0
 11
-19.736885721650843
 21
11.914711878022693
 31
0.0
  0
LINE
  8
layer1
 10
-22.495499950621209
 20
-0.45000020135448615
 30
0.0
 11
-23.050000033994486
 21
-0.45000038986579405
 31
0.0
  0
LINE
  8
layer1
 10
-23.050000033994486
 20
-0.45000038986579405
 30
0.0
 11
-25.019999932444364
 21
-3.0399999783229887
 31
0.0
  0
LINE
  8
layer1
 10
-25.019999932444364
 20
-3.0399999783229887
 30
0.0
 11
-36.529999752758322
 21
-5.9299994862028296
 31
0.0
  0
LINE
  8
layer1
 10
-22.495500023359021
 20
0.44999952689991041
 30
0.0
 11
-23.050000365551341
 21
0.4500003043144325
 31
0.0
  0
LINE
  8
layer1
 10
-23.050000365551341
 20
0.4500003043144325
 30
0.0
 11
-25.019999727509756
 21
3.0400000519106438
 31
0.0
  0
LINE
  8
layer1
 10
-25.019999727509756
 20
3.0400000519106438
 30
0.0
 11
-36.529999554345416
 21
5.9300002565980101
 31
0.0
  0
LINE
  8
layer1
 10
-23.050000033994486
 20
-0.45000038986579405
 30
0.0
 11
-23.050000365551341
 21
0.4500003043144325
 31
0.0
  0
LINE
  8
layer1
 10
-19.256674327392307
 20
-11.637461581391701
 30
0.0
 11
-19.7368853917385
 21
-11.914711786333919
 31
0.0
  0
LINE
  8
layer1
 10
-19.7368853917385
 20
-11.914711786333919
 30
0.0
 11
-20.147955555020268
 21
-15.142717174954033
 31
0.0
  0
LINE
  8
layer1
 10
-20.147955555020268
 20
-15.142717174954033
 30
0.0
 11
-28.670908043026554
 21
-23.400530075859482
 31
0.0
  0
LINE
  8
layer1
 10
-19.706674254512301
 20
-10.858038989693208
 30
0.0
 11
-20.186886025965276
 21
-11.135288487528644
 31
0.0
  0
LINE
  8
layer1
 10
-20.186886025965276
 20
-11.135288487528644
 30
0.0
 11
-23.187955392658502
 21
-9.8772825912942466
 31
0.0
  0
LINE
  8
layer1
 10
-23.187955392658502
 20
-9.8772825912942466
 30
0.0
 11
-34.600907742596355
 21
-13.129468910510592
 31
0.0
  0
LINE
  8
layer1
 10
-19.7368853917385
 20
-11.914711786333919
 30
0.0
 11
-20.186886025965276
 21
-11.135288487528644
 31
0.0
  0
LINE
  8
layer1
 10
-10.858038369229508
 20
-19.706674528746795
 30
0.0
 11
-11.135288247660565
 21
-20.186885781604293
 31
0.0
  0
LINE
  8
layer1
 10
-11.135288247660565
 20
-20.186885781604293
 30
0.0
 11
-9.8772827574903346
 21
-23.187955533343249
 31
0.0
  0
LINE
  8
layer1
 10
-9.8772827574903346
 20
-23.187955533343249
 30
0.0
 11
-13.129469676898845
 21
-34.600907529229382
 31
0.0
  0
LINE
  8
layer1
 10
-11.637461033665815
 20
-19.256674727612388
 30
0.0
 11
-11.9147118780227
 21
-19.736885721650843
 31
0.0
  0
LINE
  8
layer1
 10
-11.9147118780227
 20
-19.736885721650843
 30
0.0
 11
-15.142717136215509
 21
-20.147955340747856
 31
0.0
  0
LINE
  8
layer1
 10
-15.142717136215509
 20
-20.147955340747856
 30
0.0
 11
-23.400530643834827
 21
-28.670907485998342
 31
0.0
  0
LINE
  8
layer1
 10
-11.135288247660565
 20
-20.186885781604293
 30
0.0
 11
-11.9147118780227
 21
-19.736885721650843
 31
0.0
  0
LINE
  8
layer1
 10
0.45000020135448782
 20
-22.495499950621209
 30
0.0
 11
0.45000038986579388
 21
-23.050000033994486
 31
0.0
  0
LINE
  8
layer1
 10
0.45000038986579388
 20
-23.050000033994486
 30
0.0
 11
3.0399999783229905
 21
-25.019999932444367
 31
0.0
  0
LINE
  8
layer1
 10
3.0399999783229905
 20
-25.019999932444367
 30
0.0
 11
5.9299994862028367
 21
-36.529999752758322
 31
0.0
  0
LINE
  8
layer1
 10
-0.44999952689990919
 20
-22.495500023359021
 30
0.0
 11
-0.45000030431442956
 21
-23.050000365551341
 31
0.0
  0
LINE
  8
layer1
 10
-0.45000030431442956
 20
-23.050000365551341
 30
0.0
 11
-3.0400000519106429
 21
-25.019999727509756
 31
0.0
  0
LINE
  8
layer1
 10
-3.0400000519106429
 20
-25.019999727509756
 30
0.0
 11
-5.9300002565980048
 21
-36.529999554345416
 31
0.0
  0
LINE
  8
layer1
 10
0.45000038986579388
 20
-23.050000033994486
 30
0.0
 11
-0.45000030431442956
 21
-23.050000365551341
 31
0.0
  0
LINE
  8
layer1
 10
11.637461581391703
 20
-19.256674327392307
 30
0.0
 11
11.914711786333921
 21
-19.7368853917385
 31
0.0
  0
LINE
  8
layer1
 10
11.914711786333921
 20
-19.7368853917385
 30
0.0
 11
15.142717174954035
 21
-20.147955555020268
 31
0.0
  0
LINE
  8
layer1
 10
15.142717174954035
 20
-20.147955555020268
 30
0.0
 11
23.400530075859482
 21
-28.670908043026557
 31
0.0
  0
LINE
  8
layer1
 10
10.85803898969321
 20
-19.706674254512301
 30
0.0
 11
11.135288487528646
 21
-20.186886025965276
 31
0.0
  0
LINE
  8
layer1
 10
11.135288487528646
 20
-20.186886025965276
 30
0.0
 11
9.8772825912942466
 21
-23.187955392658502
 31
0.0
  0
LINE
  8
layer1
 10
9.8772825912942466
 20
-23.187955392658502
 30
0.0
 11
13.129468910510592
 21
-34.600907742596355
 31
0.0
  0
LINE
  8
layer1
 10
11.914711786333921
 20
-19.7368853917385
 30
0.0
 11
11.135288487528646
 21
-20.186886025965276
 31
0.0
  0
LINE
  8
layer1
 10
19.706674528746795
 20
-10.858038369229506
 30
0.0
 11
20.1868857816043
 21
-11.135288247660565
 31
0.0
  0
LINE
  8
layer1
 10
20.1868857816043
 20
-11.135288247660565
 30
0.0
 11
23.187955533343256
 21
-9.8772827574903346
 31
0.0
  0
LINE
  8
layer1
 10
23.187955533343256
 20
-9.8772827574903346
 30
0.0
 11
34.600907529229389
 21
-13.129469676898839
 31
0.0
  0
LINE
  8
layer1
 10
19.256674727612388
 20
-11.637461033665812
 30
0.0
 11
19.736885721650843
 21
-11.914711878022695
 31
0.0
  0
LINE
  8
layer1
 10
19.736885721650843
 20
-11.914711878022695
 30
0.0
 11
20.147955340747856
 21
-15.142717136215509
 31
0.0
  0
LINE
  8
layer1
 10
20.147955340747856
 20
-15.142717136215509
 30
0.0
 11
28.670907485998349
 21
-23.400530643834824
 31
0.0
  0
LINE
  8
layer1
 10
20.1868857816043
 20
-11.135288247660565
 30
0.0
 11
19.736885721650843
 21
-11.914711878022695
 31
0.0
  0
LINE
  8
layer1
 10
22.495499950621209
 20
0.45000020135448338
 30
0.0
 11
23.050000033994486
 21
0.45000038986579122
 31
0.0
  0
LINE
  8
layer1
 10
23.050000033994486
 20
0.45000038986579122
 30
0.0
 11
25.019999932444364
 21
3.0399999783229856
 31
0.0
  0
LINE
  8
layer1
 10
25.019999932444364
 20
3.0399999783229856
 30
0.0
 11
36.529999752758322
 21
5.9299994862028251
 31
0.0
  0
LINE
  8
layer1
 10
22.495500023359021
 20
-0.44999952689991318
 30
0.0
 11
23.050000365551341
 21
-0.45000030431443533
 31
0.0
  0
LINE
  8
layer1
 10
23.050000365551341
 20
-0.45000030431443533
 30
0.0
 11
25.019999727509756
 21
-3.0400000519106469
 31
0.0
  0
LINE
  8
layer1
 10
25.019999727509756
 20
-3.0400000519106469
 30
0.0
 11
36.529999554345416
 21
-5.9300002565980146
 31
0.0
  0
LINE
  8
layer1
 10
23.050000033994486
 20
0.45000038986579122
 30
0.0
 11
23.050000365551341
 21
-0.45000030431443533
 31
0.0
  0
LINE
  8
layer1
 10
19.256674327392307
 20
11.637461581391699
 30
0.0
 11
19.7368853917385
 21
11.914711786333918
 31
0.0
  0
LINE
  8
layer1
 10
19.7368853917385
 20
11.914711786333918
 30
0.0
 11
20.147955555020271
 21
15.142717174954031
 31
0.0
  0
LINE
  8
layer1
 10
20.147955555020271
 20
15.142717174954031
 30
0.0
 11
28.670908043026557
 21
23.400530075859479
 31
0.0
  0
LINE
  8
layer1
 10
19.706674254512301
 20
10.858038989693206
 30
0.0
 11
20.186886025965276
 21
11.135288487528642
 31
0.0
  0
LINE
  8
layer1
 10
20.186886025965276
 20
11.135288487528642
 30
0.0
 11
23.187955392658502
 21
9.877282591294243
 31
0.0
  0
LINE
  8
layer1
 10
23.187955392658502
 20
9.877282591294243
 30
0.0
 11
34.600907742596355
 21
13.129468910510589
 31
0.0
  0
LINE
  8
layer1
 10
19.7368853917385
 20
11.914711786333918
 30
0.0
 11
20.186886025965276
 21
11.135288487528642
 31
0.0
  0
LINE
  8
layer1
 10
10.85803836922951
 20
19.706674528746795
 30
0.0
 11
11.135288247660567
 21
20.186885781604293
 31
0.0
  0
LINE
  8
layer1
 10
11.135288247660567
 20
20.186885781604293
 30
0.0
 11
9.8772827574903381
 21
23.187955533343249
 31
0.0
  0
LINE
  8
layer1
 10
9.8772827574903381
 20
23.187955533343249
 30
0.0
 11
13.129469676898848
 21
34.600907529229382
 31
0.0
  0
LINE
  8
layer1
 10
11.637461033665817
 20
19.256674727612388
 30
0.0
 11
11.914711878022702
 21
19.736885721650843
 31
0.0
  0
LINE
  8
layer1
 10
11.914711878022702
 20
19.736885721650843
 30
0.0
 11
15.142717136215511
 21
20.147955340747853
 31
0.0
  0
LINE
  8
layer1
 10
15.142717136215511
 20
20.147955340747853
 30
0.0
 11
23.400530643834831
 21
28.670907485998338
 31
0.0
  0
LINE
  8
layer1
 10
11.135288247660567
 20
20.186885781604293
 30
0.0
 11
11.914711878022702
 21
19.736885721650843
 31
0.0
  0
ARC
  8
layer1
 10
-2.2596974247335311e-007
 20
-0.0021213854607324834
 30
0
 40
37.010279194892277
 50
80.779999041465231
 51
99.219999041465243
  0
ARC
  8
default
 10
0
 20
0.40000000000000002
 30
0
 40
43.251849671430243
 50
359.47011194465591
 51
179.47011194465588
  0
ARC
  8
default
 10
0
 20
0.40000000000000002
 30
0
 40
43.251849671430243
 50
179.47011194465588
 51
359.47011194465591
  0
ARC
  8
layer1
 10
0.001060497034828245
 20
-0.0018372866850810965
 30
0
 40
37.010279194892277
 50
110.77999904146525
 51
129.21999904146523
  0
ARC
  8
layer1
 10
0.0018370607153421759
 20
-0.0010608884258971329
 30
0
 40
37.010279194892277
 50
140.77999904146526
 51
159.21999904146526
  0
ARC
  8
layer1
 10
0.0021213854607253779
 20
-2.2596973181521207e-007
 30
0
 40
37.01027919489227
 50
170.77999904146523
 51
189.21999904146526
  0
ARC
  8
layer1
 10
0.0018372866850810965
 20
0.0010604970348317977
 30
0
 40
37.010279194892277
 50
200.7799990414652
 51
219.2199990414652
  0
ARC
  8
layer1
 10
0.0010608884259006857
 20
0.0018370607153457286
 30
0
 40
37.010279194892277
 50
230.77999904146523
 51
249.2199990414652
  0
ARC
  8
layer1
 10
2.2596973803246101e-007
 20
0.0021213854607324834
 30
0
 40
37.010279194892277
 50
260.7799990414652
 51
279.21999904146526
  0
ARC
  8
layer1
 10
-0.0010604970348175868
 20
0.0018372866850810965
 30
0
 40
37.010279194892277
 50
290.7799990414652
 51
309.2199990414652
  0
ARC
  8
layer1
 10
-0.0018370607153457286
 20
0.0010608884259042384
 30
0
 40
37.010279194892284
 50
320.7799990414652
 51
339.2199990414652
  0
ARC
  8
layer1
 10
-0.0021213854607253779
 20
2.2596972737431997e-007
 30
0
 40
37.01027919489227
 50
350.77999904146526
 51
9.2199990414652326
  0
ARC
  8
layer1
 10
-0.0018372866850810965
 20
-0.0010604970348211396
 30
0
 40
37.010279194892277
 50
20.779999041465206
 51
39.219999041465208
  0
ARC
  8
layer1
 10
-0.0010608884259077911
 20
-0.0018370607153492813
 30
0
 40
37.010279194892291
 50
50.77999904146521
 51
69.219999041465201
  0
ARC
  8
default
 10
-5.3925283793887502e-008
 20
1.1360264540183351e-007
 30
0
 40
22.500000456300615
 50
1.1459921986476653
 51
28.854008910582394
  0
ARC
  8
default
 10
-9.1815586245047598e-008
 20
8.3106554527034859e-008
 30
0
 40
22.500000440254318
 50
31.145992188570233
 51
58.854008920659773
  0
ARC
  8
default
 10
-1.1316488901513821e-007
 20
5.5559013389938627e-008
 30
0
 40
22.500000410607743
 50
61.145992169951583
 51
88.854008939278501
  0
ARC
  8
default
 10
-1.5622164450945775e-007
 20
1.0513095816122586e-007
 30
0
 40
22.500000296423806
 50
91.145992098241678
 51
118.85400901098841
  0
ARC
  8
default
 10
-1.0877679734733192e-007
 20
-6.6145322108468463e-008
 30
0
 40
22.500000405007199
 50
121.14599216643435
 51
148.85400894279573
  0
ARC
  8
default
 10
1.3288499545183186e-007
 20
-1.6365831356779381e-007
 30
0
 40
22.500000600023931
 50
151.14599228890893
 51
178.8540088203211
  0
ARC
  8
default
 10
-1.5621907678564639e-007
 20
-1.6991066065230598e-007
 30
0
 40
22.500000245072126
 50
181.14599206599175
 51
208.85400904323831
  0
ARC
  8
default
 10
-2.1555489837510322e-008
 20
-1.9647762883323594e-007
 30
0
 40
22.5000002845876
 50
211.14599209080825
 51
238.85400901842178
  0
ARC
  8
default
 10
9.6301075558358207e-008
 20
-1.1849563108512484e-007
 30
0
 40
22.500000347346436
 50
241.14599213022217
 51
268.85400897900792
  0
ARC
  8
default
 10
1.1966625546033782e-007
 20
3.129559544845506e-008
 30
0
 40
22.500000433554181
 50
271.1459921843624
 51
298.85400892486763
  0
ARC
  8
default
 10
1.5115944052013219e-009
 20
1.7341053037966958e-007
 30
0
 40
22.500000552290128
 50
301.14599225893107
 51
328.85400885029895
  0
ARC
  8
default
 10
-2.7904962607294692e-007
 20
2.0282300461360592e-007
 30
0
 40
22.500000746942614
 50
331.14599238117694
 51
358.85400872805309
  0
ENDSEC
  0
EOF
