  0
SECTION
  2
HEADER
  9
$INSBASE
 10
0.0000
 20
0.0000
  9
$EXTMIN
 10
-0.76600169736441226
 20
-0.76600069736441223
  9
$EXTMAX
 10
22.431771697364411
 20
22.431771697364415
  9
$LIMMIN
 10
-0.76600169736441226
 20
-0.76600069736441223
  9
$LIMMAX
 10
22.431771697364411
 20
22.431771697364415
  9
$TEXTSTYLE
  7
STANDARD
  9
$CLAYER
  8
default
  0
ENDSEC
  0
SECTION
  2
TABLES
  0
TABLE
  2
LTYPE
 70
4948253
  0
LTYPE
  2
CONTINUOUS
 70
    64
  3
Solid line
 72
    65
 73
     0
 40
0.0
  0
ENDTAB
  0
TABLE
  2
LAYER
 70
     5
  0
LAYER
  2
default
 70
    64
 62
     7
  6
CONTINUOUS
  0
ENDTAB
  0
TABLE
  2
STYLE
 70
     1
  0
STYLE
  2
STANDARD
 70
     0
 40
0.0
 41
1.0
 50
0.0
 71
     0
 42
0.2
  3
txt
  4

  0
ENDTAB
  0
TABLE
  2
VIEW
 70
     0
  0
ENDTAB
  0
ENDSEC
  0
SECTION
  2
BLOCKS
  0
ENDSEC
  0
SECTION
  2
ENTITIES
  0
LINE
  8
default
 10
6
 20
0
 30
0.0
 11
19.231997
 21
9.9999999999999995e-007
 31
0.0
  0
LINE
  8
default
 10
0
 20
6
 30
0.0
 11
-9.9999999999999995e-007
 21
19.231997
 31
0.0
  0
LINE
  8
default
 10
13.07367
 20
13.426727
 30
0.0
 11
10.950379999999999
 21
11.303748000000001
 31
0.0
  0
LINE
  8
default
 10
13.426727
 20
13.07367
 30
0.0
 11
11.303748000000001
 21
10.950379999999999
 31
0.0
  0
LINE
  8
default
 10
11.890891
 20
16.081254000000001
 30
0.0
 11
8.9737810000000007
 21
17.873759
 31
0.0
  0
LINE
  8
default
 10
16.081254000000001
 20
11.890891
 30
0.0
 11
17.873759
 21
8.9737810000000007
 31
0.0
  0
LINE
  8
default
 10
18.738610000000001
 20
0.24964900000000001
 30
0.0
 11
15.736045000000001
 21
0.24986900000000001
 31
0.0
  0
LINE
  8
default
 10
0.24964900000000001
 20
18.738610000000001
 30
0.0
 11
0.24986900000000001
 21
15.736045000000001
 31
0.0
  0
LINE
  8
default
 10
19.779292999999999
 20
2.9630339999999999
 30
0.0
 11
18.984078
 21
6.2932350000000001
 31
0.0
  0
LINE
  8
default
 10
2.9630339999999999
 20
19.779292999999999
 30
0.0
 11
6.2932350000000001
 21
18.984078
 31
0.0
  0
LINE
  8
default
 10
5.6940189999999999
 20
21.250368999999999
 30
0.0
 11
5.3032029999999999
 21
19.791820999999999
 31
0.0
  0
LINE
  8
default
 10
11.000000999999999
 20
19.052558999999999
 30
0.0
 11
10.245001
 21
17.744861
 31
0.0
  0
LINE
  8
default
 10
19.052558999999999
 20
11.000000999999999
 30
0.0
 11
17.744861
 21
10.245001
 31
0.0
  0
LINE
  8
default
 10
21.250368999999999
 20
5.6940189999999999
 30
0.0
 11
19.791820999999999
 21
5.3032029999999999
 31
0.0
  0
ARC
  8
default
 10
16.579665065665331
 20
16.579665065665331
 30
0
 40
4.2151901356345407
 50
160.00000000000003
 51
290
  0
ARC
  8
default
 10
23.447186726576643
 20
5.271182286215037e-007
 30
0
 40
4.2151897265766705
 50
114.99999357226331
 51
179.99999357226332
  0
ARC
  8
default
 10
-4.7288177160054086e-007
 20
23.447188296262219
 30
0
 40
4.2151912962622538
 50
269.99999283504644
 51
334.99999283504644
  0
ARC
  8
default
 10
-8.8817841970012523e-016
 20
-8.8817841970012523e-016
 30
0
 40
6.0000000000000009
 50
8.4814791505693754e-015
 51
90
  0
ARC
  8
default
 10
14.565666872984481
 20
15.682286068608725
 30
0
 40
2.7043670943454643
 50
171.51634389372552
 51
236.51634389372549
  0
ARC
  8
default
 10
15.682286068608725
 20
14.565666872984481
 30
0
 40
2.7043670943454643
 50
213.48365610627451
 51
278.48365610627451
  0
ARC
  8
default
 10
15.11850625410163
 20
16.140072971022427
 30
0
 40
6.3846155479767432
 50
164.24400346119774
 51
229.24400346119771
  0
ARC
  8
default
 10
16.140072971022427
 20
15.11850625410163
 30
0
 40
6.3846155479767432
 50
220.75599653880229
 51
285.75599653880226
  0
ARC
  8
default
 10
21.38853214983347
 20
0.78956895227432122
 30
0
 40
2.7043670155956909
 50
126.51634306373217
 51
191.51634306373222
  0
ARC
  8
default
 10
0.78956895227432078
 20
21.38853214983347
 30
0
 40
2.7043670155956909
 50
258.48365693626783
 51
323.48365693626783
  0
ARC
  8
default
 10
22.10315372372111
 20
0.72235672294917297
 30
0
 40
6.3846157400444357
 50
119.24400224475653
 51
184.2440022447565
  0
ARC
  8
default
 10
0.72235672294917308
 20
22.10315372372111
 30
0
 40
6.3846157400444357
 50
265.75599775524347
 51
330.75599775524347
  0
ARC
  8
default
 10
-4.1929193095313622e-007
 20
-2.413784621069226e-007
 30
0
 40
20.490001331309607
 50
59.999997566606702
 51
74.999997566606723
  0
ARC
  8
default
 10
4.4918252886105847e-006
 20
1.5848685563923937e-006
 30
0
 40
21.999998102213198
 50
75.000010765751441
 51
80.000010765751441
  0
ARC
  8
default
 10
-3.4312994756646731e-007
 20
6.9391499160076364e-006
 30
0
 40
21.999994763187182
 50
54.999988086672104
 51
59.999988086672097
  0
ARC
  8
default
 10
-2.1732442352373482e-006
 20
-3.2992728158376394e-006
 30
0
 40
22.000004544978051
 50
59.999997291205759
 51
74.999997291205744
  0
ARC
  8
default
 10
1.5848685563923937e-006
 20
4.4918252886105847e-006
 30
0
 40
21.999998102213198
 50
9.999989234248563
 51
14.999989234248563
  0
ARC
  8
default
 10
6.9391499160076364e-006
 20
-3.4312994934282415e-007
 30
0
 40
21.999994763187182
 50
30.000011913327903
 51
35.000011913327903
  0
ARC
  8
default
 10
-3.2992728122849257e-006
 20
-2.1732442343491698e-006
 30
0
 40
22.000004544978051
 50
15.000002708794248
 51
30.000002708794248
  0
ARC
  8
default
 10
-2.413784621069226e-007
 20
-4.1929193184131464e-007
 30
0
 40
20.490001331309607
 50
15.000002433393295
 51
30.000002433393298
  0
ENDSEC
  0
EOF
