  0
SECTION
  2
HEADER
  9
$INSBASE
 10
0.0000
 20
0.0000
  9
$EXTMIN
 10
-0.76600169736441226
 20
-0.76600069736441223
  9
$EXTMAX
 10
22.431771697364411
 20
22.431771697364415
  9
$LIMMIN
 10
-0.76600169736441226
 20
-0.76600069736441223
  9
$LIMMAX
 10
22.431771697364411
 20
22.431771697364415
  9
$TEXTSTYLE
  7
STANDARD
  9
$CLAYER
  8
default
  0
ENDSEC
  0
SECTION
  2
TABLES
  0
TABLE
  2
LTYPE
 70
4948253
  0
LTYPE
  2
CONTINUOUS
 70
    64
  3
Solid line
 72
    65
 73
     0
 40
0.0
  0
ENDTAB
  0
TABLE
  2
LAYER
 70
     5
  0
LAYER
  2
default
 70
    64
 62
     7
  6
CONTINUOUS
  0
ENDTAB
  0
TABLE
  2
STYLE
 70
     1
  0
STYLE
  2
STANDARD
 70
     0
 40
0.0
 41
1.0
 50
0.0
 71
     0
 42
0.2
  3
txt
  4

  0
ENDTAB
  0
TABLE
  2
VIEW
 70
     0
  0
ENDTAB
  0
ENDSEC
  0
SECTION
  2
BLOCKS
  0
ENDSEC
  0
SECTION
  2
ENTITIES
  0
LINE
  8
default
 10
6
 20
0
 30
0.0
 11
19.231997
 21
9.9999999999999995e-007
 31
0.0
  0
LINE
  8
default
 10
0
 20
6
 30
0.0
 11
-9.9999999999999995e-007
 21
19.231997
 31
0.0
  0
LINE
  8
default
 10
13.07367
 20
13.426727
 30
0.0
 11
10.950379999999999
 21
11.303748000000001
 31
0.0
  0
LINE
  8
default
 10
13.426727
 20
13.07367
 30
0.0
 11
11.303748000000001
 21
10.950379999999999
 31
0.0
  0
LINE
  8
default
 10
11.890891
 20
16.081254000000001
 30
0.0
 11
8.9737810000000007
 21
17.873759
 31
0.0
  0
LINE
  8
default
 10
16.081254000000001
 20
11.890891
 30
0.0
 11
17.873759
 21
8.9737810000000007
 31
0.0
  0
LINE
  8
default
 10
18.738610000000001
 20
0.24964900000000001
 30
0.0
 11
15.736045000000001
 21
0.24986900000000001
 31
0.0
  0
LINE
  8
default
 10
0.24964900000000001
 20
18.738610000000001
 30
0.0
 11
0.24986900000000001
 21
15.736045000000001
 31
0.0
  0
LINE
  8
default
 10
19.779292999999999
 20
2.9630339999999999
 30
0.0
 11
18.984078
 21
6.2932350000000001
 31
0.0
  0
LINE
  8
default
 10
2.9630339999999999
 20
19.779292999999999
 30
0.0
 11
6.2932350000000001
 21
18.984078
 31
0.0
  0
LINE
  8
default
 10
4.5740569999999998
 20
21.519247
 30
0.0
 11
4.2621900000000004
 21
20.052026000000001
 31
0.0
  0
LINE
  8
default
 10
9.9877909999999996
 20
19.602143999999999
 30
0.0
 11
9.3068059999999999
 21
18.265633999999999
 31
0.0
  0
LINE
  8
default
 10
5.8792439999999999
 20
21.199870000000001
 30
0.0
 11
5.4783864890519141
 21
19.754424683058598
 31
0.0
  0
LINE
  8
default
 10
9.4712440000000004
 20
19.856876
 30
0.0
 11
8.8254775961767216
 21
18.502998868180196
 31
0.0
  0
LINE
  8
default
 10
18.450752000000001
 20
11.982059
 30
0.0
 11
17.192746
 21
11.165100000000001
 31
0.0
  0
LINE
  8
default
 10
20.923242999999999
 20
6.7983739999999999
 30
0.0
 11
19.496658
 21
6.334848
 31
0.0
  0
LINE
  8
default
 10
19.147825000000001
 20
10.833318
 30
0.0
 11
17.842291025663563
 21
10.09468293157351
 31
0.0
  0
LINE
  8
default
 10
20.738112999999998
 20
7.3437510000000001
 30
0.0
 11
19.324149770423446
 21
6.8430408371832288
 31
0.0
  0
LINE
  8
default
 10
5.4783864890519141
 20
19.754424683058598
 30
0.0
 11
5.475714
 21
19.744788
 31
0.0
  0
LINE
  8
default
 10
8.8254775961767216
 20
18.502998868180196
 30
0.0
 11
8.8211720000000007
 21
18.493971999999999
 31
0.0
  0
LINE
  8
default
 10
17.842291025663563
 20
10.09468293157351
 30
0.0
 11
17.833587999999999
 21
10.089759000000001
 31
0.0
  0
LINE
  8
default
 10
19.324149770423446
 20
6.8430408371832288
 30
0.0
 11
19.314723999999998
 21
6.8397030000000001
 31
0.0
  0
ARC
  8
default
 10
16.579665065665331
 20
16.579665065665331
 30
0
 40
4.2151901356345407
 50
160.00000000000003
 51
290
  0
ARC
  8
default
 10
23.447186726576643
 20
5.271182286215037e-007
 30
0
 40
4.2151897265766705
 50
114.99999357226331
 51
179.99999357226332
  0
ARC
  8
default
 10
-4.7288177160054086e-007
 20
23.447188296262219
 30
0
 40
4.2151912962622538
 50
269.99999283504644
 51
334.99999283504644
  0
ARC
  8
default
 10
-8.8817841970012523e-016
 20
-8.8817841970012523e-016
 30
0
 40
6.0000000000000009
 50
8.4814791505693754e-015
 51
90
  0
ARC
  8
default
 10
14.565666872984481
 20
15.682286068608725
 30
0
 40
2.7043670943454643
 50
171.51634389372552
 51
236.51634389372549
  0
ARC
  8
default
 10
15.682286068608725
 20
14.565666872984481
 30
0
 40
2.7043670943454643
 50
213.48365610627451
 51
278.48365610627451
  0
ARC
  8
default
 10
15.11850625410163
 20
16.140072971022427
 30
0
 40
6.3846155479767432
 50
164.24400346119774
 51
229.24400346119771
  0
ARC
  8
default
 10
16.140072971022427
 20
15.11850625410163
 30
0
 40
6.3846155479767432
 50
220.75599653880229
 51
285.75599653880226
  0
ARC
  8
default
 10
21.38853214983347
 20
0.78956895227432122
 30
0
 40
2.7043670155956909
 50
126.51634306373217
 51
191.51634306373222
  0
ARC
  8
default
 10
0.78956895227432078
 20
21.38853214983347
 30
0
 40
2.7043670155956909
 50
258.48365693626783
 51
323.48365693626783
  0
ARC
  8
default
 10
22.10315372372111
 20
0.72235672294917297
 30
0
 40
6.3846157400444357
 50
119.24400224475653
 51
184.2440022447565
  0
ARC
  8
default
 10
0.72235672294917308
 20
22.10315372372111
 30
0
 40
6.3846157400444357
 50
265.75599775524347
 51
330.75599775524347
  0
ARC
  8
default
 10
8.0953047820742086e-007
 20
-1.3645596936839866e-006
 30
0
 40
20.500001417668344
 50
63.000002188861522
 51
64.50000405107069
  0
ARC
  8
default
 10
8.0953031122987795e-007
 20
-1.3645595480227257e-006
 30
0
 40
20.500001417668283
 50
64.500004051070107
 51
74.500004086486925
  0
ARC
  8
default
 10
8.0953031922348373e-007
 20
-1.364559544470012e-006
 30
0
 40
20.50000141766828
 50
74.500004086486939
 51
78.000002188860947
  0
ARC
  8
default
 10
-1.8668992682435714e-005
 20
8.3963092265548767e-006
 30
0
 40
21.999995416096024
 50
77.999948282745777
 51
79.999948282745777
  0
ARC
  8
default
 10
-2.9589719687805882e-006
 20
-2.5743935516686633e-006
 30
0
 40
22.000004056610667
 50
54.999996717430555
 51
62.999996717430555
  0
ARC
  8
default
 10
-1.8311473386489752e-006
 20
-9.3575937398782116e-007
 30
0
 40
22.000001346270835
 50
64.499996763172945
 51
74.499996763172945
  0
ARC
  8
default
 10
-1.2472494184123661e-006
 20
-5.24678498869946e-007
 30
0
 40
20.500000673999448
 50
17.99999979932695
 51
19.50000154945204
  0
ARC
  8
default
 10
-1.2472494574922166e-006
 20
-5.2467841182846087e-007
 30
0
 40
20.500000673999452
 50
19.500001549451778
 51
29.500000456758364
  0
ARC
  8
default
 10
-1.2472494574922166e-006
 20
-5.2467840738756877e-007
 30
0
 40
20.500000673999448
 50
29.500000456758354
 51
32.999999799326673
  0
ARC
  8
default
 10
-1.9422068930907699e-007
 20
-5.5571318977598594e-006
 30
0
 40
22.000001599257473
 50
10.000014203111995
 51
18.000014203111995
  0
ARC
  8
default
 10
-5.1216294849609767e-006
 20
1.5223010208842425e-005
 30
0
 40
21.999995714432785
 50
32.999960688769541
 51
34.999960688769534
  0
ARC
  8
default
 10
2.3380049967158811e-006
 20
-3.0082268525077893e-006
 30
0
 40
21.99999901732949
 50
19.500009485072415
 51
29.500009485072411
  0
ENDSEC
  0
EOF
