  0
SECTION
  2
HEADER
  9
$INSBASE
 10
0.0000
 20
0.0000
  9
$EXTMIN
 10
-0.76600169736441204
 20
-0.76600069736441201
  9
$EXTMAX
 10
22.431771697364411
 20
22.431771697364411
  9
$LIMMIN
 10
-0.76600169736441204
 20
-0.76600069736441201
  9
$LIMMAX
 10
22.431771697364411
 20
22.431771697364411
  9
$TEXTSTYLE
  7
STANDARD
  9
$CLAYER
  8
default
  0
ENDSEC
  0
SECTION
  2
TABLES
  0
TABLE
  2
LTYPE
 70
4948253
  0
LTYPE
  2
CONTINUOUS
 70
    64
  3
Solid line
 72
    65
 73
     0
 40
0.0
  0
ENDTAB
  0
TABLE
  2
LAYER
 70
     5
  0
LAYER
  2
default
 70
    64
 62
     7
  6
CONTINUOUS
  0
ENDTAB
  0
TABLE
  2
STYLE
 70
     1
  0
STYLE
  2
STANDARD
 70
     0
 40
0.0
 41
1.0
 50
0.0
 71
     0
 42
0.2
  3
txt
  4

  0
ENDTAB
  0
TABLE
  2
VIEW
 70
     0
  0
ENDTAB
  0
ENDSEC
  0
SECTION
  2
BLOCKS
  0
ENDSEC
  0
SECTION
  2
ENTITIES
  0
LINE
  8
default
 10
6
 20
0
 30
0.0
 11
19.231997
 21
9.9999999999999995e-007
 31
0.0
  0
LINE
  8
default
 10
0
 20
6
 30
0.0
 11
-9.9999999999999995e-007
 21
19.231997
 31
0.0
  0
LINE
  8
default
 10
13.07367
 20
13.426727
 30
0.0
 11
10.950379999999999
 21
11.303748000000001
 31
0.0
  0
LINE
  8
default
 10
13.426727
 20
13.07367
 30
0.0
 11
11.303748000000001
 21
10.950379999999999
 31
0.0
  0
LINE
  8
default
 10
11.890891
 20
16.081254000000001
 30
0.0
 11
8.9737810000000007
 21
17.873759
 31
0.0
  0
LINE
  8
default
 10
16.081254000000001
 20
11.890891
 30
0.0
 11
17.873759
 21
8.9737810000000007
 31
0.0
  0
LINE
  8
default
 10
18.738610000000001
 20
0.24964900000000001
 30
0.0
 11
15.736045000000001
 21
0.24986900000000001
 31
0.0
  0
LINE
  8
default
 10
0.24964900000000001
 20
18.738610000000001
 30
0.0
 11
0.24986900000000001
 21
15.736045000000001
 31
0.0
  0
LINE
  8
default
 10
19.779292999999999
 20
2.9630339999999999
 30
0.0
 11
18.984078
 21
6.2932350000000001
 31
0.0
  0
LINE
  8
default
 10
2.9630339999999999
 20
19.779292999999999
 30
0.0
 11
6.2932350000000001
 21
18.984078
 31
0.0
  0
LINE
  8
default
 10
5.1357980000000003
 20
21.392139
 30
0.0
 11
4.7856300000000003
 21
19.933582999999999
 31
0.0
  0
LINE
  8
default
 10
11.494968999999999
 20
18.758084
 30
0.0
 11
10.711220000000001
 21
17.479123000000001
 31
0.0
  0
LINE
  8
default
 10
5.6940189999999999
 20
21.250368999999999
 30
0.0
 11
5.3057908350304448
 21
19.801478950564931
 31
0.0
  0
LINE
  8
default
 10
11.000000999999999
 20
19.052558999999999
 30
0.0
 11
10.250000250274665
 21
17.753519953093612
 31
0.0
  0
LINE
  8
default
 10
18.758084
 20
11.494968999999999
 30
0.0
 11
17.479123000000001
 21
10.711220000000001
 31
0.0
  0
LINE
  8
default
 10
21.392139
 20
5.1357980000000003
 30
0.0
 11
19.933582999999999
 21
4.7856300000000003
 31
0.0
  0
LINE
  8
default
 10
19.052558999999999
 20
11.000000999999999
 30
0.0
 11
17.753519953093608
 21
10.250000250274663
 31
0.0
  0
LINE
  8
default
 10
21.250368999999999
 20
5.6940189999999999
 30
0.0
 11
19.801478950564931
 21
5.3057908350304448
 31
0.0
  0
LINE
  8
default
 10
5.3057908350304448
 20
19.801478950564931
 30
0.0
 11
5.3032029999999999
 21
19.791820999999999
 31
0.0
  0
LINE
  8
default
 10
10.250000250274665
 20
17.753519953093612
 30
0.0
 11
10.245001
 21
17.744861
 31
0.0
  0
LINE
  8
default
 10
17.753519953093608
 20
10.250000250274663
 30
0.0
 11
17.744861
 21
10.245001
 31
0.0
  0
LINE
  8
default
 10
19.801478950564931
 20
5.3057908350304448
 30
0.0
 11
19.791820999999999
 21
5.3032029999999999
 31
0.0
  0
ARC
  8
default
 10
16.579665065665331
 20
16.579665065665331
 30
0
 40
4.2151901356345407
 50
160.00000000000003
 51
290
  0
ARC
  8
default
 10
23.447186726576643
 20
5.271182286215037e-007
 30
0
 40
4.2151897265766705
 50
114.99999357226331
 51
179.99999357226332
  0
ARC
  8
default
 10
-4.7288177160054086e-007
 20
23.447188296262219
 30
0
 40
4.2151912962622538
 50
269.99999283504644
 51
334.99999283504644
  0
ARC
  8
default
 10
-8.8817841970012523e-016
 20
-8.8817841970012523e-016
 30
0
 40
6.0000000000000009
 50
8.4814791505693754e-015
 51
90
  0
ARC
  8
default
 10
14.565666872984481
 20
15.682286068608725
 30
0
 40
2.7043670943454643
 50
171.51634389372552
 51
236.51634389372549
  0
ARC
  8
default
 10
15.682286068608725
 20
14.565666872984481
 30
0
 40
2.7043670943454643
 50
213.48365610627451
 51
278.48365610627451
  0
ARC
  8
default
 10
15.11850625410163
 20
16.140072971022427
 30
0
 40
6.3846155479767432
 50
164.24400346119774
 51
229.24400346119771
  0
ARC
  8
default
 10
16.140072971022427
 20
15.11850625410163
 30
0
 40
6.3846155479767432
 50
220.75599653880229
 51
285.75599653880226
  0
ARC
  8
default
 10
21.38853214983347
 20
0.78956895227432122
 30
0
 40
2.7043670155956909
 50
126.51634306373217
 51
191.51634306373222
  0
ARC
  8
default
 10
0.78956895227432078
 20
21.38853214983347
 30
0
 40
2.7043670155956909
 50
258.48365693626783
 51
323.48365693626783
  0
ARC
  8
default
 10
22.10315372372111
 20
0.72235672294917297
 30
0
 40
6.3846157400444357
 50
119.24400224475653
 51
184.2440022447565
  0
ARC
  8
default
 10
0.72235672294917308
 20
22.10315372372111
 30
0
 40
6.3846157400444357
 50
265.75599775524347
 51
330.75599775524347
  0
ARC
  8
default
 10
-2.7135482838502867e-007
 20
1.5810784574910031e-006
 30
0
 40
20.499998177533683
 50
58.499997879445111
 51
59.999995375734606
  0
ARC
  8
default
 10
-2.7135462055127846e-007
 20
1.5810783509095927e-006
 30
0
 40
20.499998177533676
 50
59.99999537573526
 51
74.999996662415768
  0
ARC
  8
default
 10
-2.713546631838426e-007
 20
1.581078347356879e-006
 30
0
 40
20.499998177533691
 50
74.999996662415654
 51
76.499997879445658
  0
ARC
  8
default
 10
5.2395004477290286e-006
 20
2.166120637525637e-006
 30
0
 40
21.999997399959344
 50
76.500012420513812
 51
80.000012420513798
  0
ARC
  8
default
 10
-5.3797461170290717e-006
 20
3.0847333292172152e-006
 30
0
 40
22.000000809425241
 50
54.999983099463662
 51
58.499983099463648
  0
ARC
  8
default
 10
-2.1732442352373482e-006
 20
-3.2992728158376394e-006
 30
0
 40
22.000004544978051
 50
59.999997291205759
 51
74.999997291205744
  0
ARC
  8
default
 10
1.5810783651204474e-006
 20
-2.7135465874295051e-007
 30
0
 40
20.499998177533669
 50
13.500002120554344
 51
15.000003337584355
  0
ARC
  8
default
 10
1.581078347356879e-006
 20
-2.7135463920302527e-007
 30
0
 40
20.499998177533687
 50
15.000003337584291
 51
30.000004624264783
  0
ARC
  8
default
 10
1.5810783935421568e-006
 20
-2.7135468805283836e-007
 30
0
 40
20.499998177533669
 50
30.000004624264964
 51
31.500002120554459
  0
ARC
  8
default
 10
2.166120637525637e-006
 20
5.2395004477290286e-006
 30
0
 40
21.999997399959344
 50
9.9999875794861985
 51
13.499987579486199
  0
ARC
  8
default
 10
3.0847333292172152e-006
 20
-5.3797461152527148e-006
 30
0
 40
22.000000809425241
 50
31.500016900536345
 51
35.000016900536345
  0
ARC
  8
default
 10
-3.2992728122849257e-006
 20
-2.1732442343491698e-006
 30
0
 40
22.000004544978051
 50
15.000002708794248
 51
30.000002708794248
  0
ENDSEC
  0
EOF
