<?xml version="1.0" encoding="UTF-8" standalone="no"?>
<!-- Created with Inkscape (http://www.inkscape.org/) -->

<svg
   width="21.854254mm"
   height="21.854326mm"
   viewBox="0 0 21.854254 21.854326"
   version="1.1"
   id="svg1"
   xml:space="preserve"
   xmlns:inkscape="http://www.inkscape.org/namespaces/inkscape"
   xmlns:sodipodi="http://sodipodi.sourceforge.net/DTD/sodipodi-0.dtd"
   xmlns="http://www.w3.org/2000/svg"
   xmlns:svg="http://www.w3.org/2000/svg"><sodipodi:namedview
     id="namedview1"
     pagecolor="#ffffff"
     bordercolor="#000000"
     borderopacity="0.25"
     inkscape:showpageshadow="2"
     inkscape:pageopacity="0.0"
     inkscape:pagecheckerboard="0"
     inkscape:deskcolor="#d1d1d1"
     inkscape:document-units="mm" /><defs
     id="defs1" /><g
     inkscape:label="Réteg 1"
     inkscape:groupmode="layer"
     id="layer1"
     transform="translate(-126.07835,-79.40357)"><g
       id="g2"
       transform="matrix(0.26458333,0,0,0.26458333,126.21064,-195.87448)"><g
         inkscape:label="default"
         id="g49"><path
           style="fill:none;stroke:#000000"
           d="M 22.6772,1122.52 H 69.7614"
           id="path5-9" /><path
           style="fill:none;stroke:#000000"
           d="m 0,1099.84 4e-6,-47.08"
           id="path6-5" /><path
           style="fill:none;stroke:#000000"
           d="m 45.3871,1074.47 -8.0427,8.04"
           id="path7-1" /><path
           style="fill:none;stroke:#000000"
           d="m 48.0483,1077.13 -8.0361,8.05"
           id="path8-4" /><path
           style="fill:none;stroke:#000000"
           d="m 40.8304,1058.91 -10.4401,-5.6"
           id="path9-4" /><path
           style="fill:none;stroke:#000000"
           d="m 63.6146,1081.69 5.5978,10.44"
           id="path10-8" /><path
           style="fill:none;stroke:#000000"
           d="m 66.0688,1120.64 -11.3694,-0.01"
           id="path11-5" /><path
           style="fill:none;stroke:#000000"
           d="m 1.88173,1056.45 0.0047,11.37"
           id="path12-0" /><path
           style="fill:none;stroke:#000000"
           d="m 73.8537,1106.41 -3.4239,-11.34"
           id="path13-5" /><path
           style="fill:none;stroke:#000000"
           d="m 16.1109,1048.67 11.3405,3.42"
           id="path14-1" /><path
           style="fill:none;stroke:#000000"
           d="m 17.2878,1041.19 -1.1787,5.54"
           id="path15-8" /><path
           style="fill:none;stroke:#000000"
           d="m 41.5748,1050.51 -2.8346,4.91"
           id="path16-2" /><path
           style="fill:none;stroke:#000000"
           d="m 18.7046,1041.5 -1.2753,5.53"
           id="path17-5" /><path
           style="fill:none;stroke:#000000"
           d="m 39.0364,1049.1 -2.6616,5.01"
           id="path18-4" /><path
           style="fill:none;stroke:#000000"
           d="m 69.7351,1077.23 -4.7546,3.09"
           id="path19-3" /><path
           style="fill:none;stroke:#000000"
           d="m 80.3164,1101 -5.4762,1.47"
           id="path20-3" /><path
           style="fill:none;stroke:#000000"
           d="m 70.5149,1078.46 -4.8079,3"
           id="path21-1" /><path
           style="fill:none;stroke:#000000"
           d="m 79.5164,1098.21 -5.4216,1.66"
           id="path22-7" /><path
           d="m 46.436496,1053.545 a 16.643056,16.643056 0 0 0 22.5382,22.5382"
           style="fill:none;stroke:#000000"
           id="path23-1" /><path
           d="m 81.608035,1106.5828 a 16.645013,16.645013 0 0 0 -11.846589,15.9369"
           style="fill:none;stroke:#000000"
           id="path24-5" /><path
           d="m 4e-6,1052.7582 a 16.6411,16.6411 0 0 0 15.936911,-11.8465"
           style="fill:none;stroke:#000000"
           id="path25-6" /><path
           d="M 22.677165,1122.5197 A 22.677165,22.677165 0 0 0 0,1099.8425"
           style="fill:none;stroke:#000000"
           id="path26-8" /><path
           d="m 40.830365,1058.9051 a 13.595471,13.595471 0 0 0 4.556746,15.5663"
           style="fill:none;stroke:#000000"
           id="path27-7" /><path
           d="m 48.048272,1077.1326 a 13.595471,13.595471 0 0 0 15.566291,4.5567"
           style="fill:none;stroke:#000000"
           id="path28-4" /><path
           d="m 30.390293,1053.3072 a 25.160611,25.160611 0 0 0 6.954123,29.2003"
           style="fill:none;stroke:#000000"
           id="path29-9" /><path
           d="m 40.012229,1085.1753 a 25.160611,25.160611 0 0 0 29.200211,6.9541"
           style="fill:none;stroke:#000000"
           id="path30-8" /><path
           d="m 73.853715,1106.4088 a 13.595471,13.595471 0 0 0 -7.784924,14.2292"
           style="fill:none;stroke:#000000"
           id="path31-2" /><path
           d="M 1.881725,1056.4509 A 13.595471,13.595471 0 0 0 16.11086,1048.666"
           style="fill:none;stroke:#000000"
           id="path32-0" /><path
           d="m 70.429769,1095.0683 a 25.16061,25.16061 0 0 0 -15.73036,25.565"
           style="fill:none;stroke:#000000"
           id="path33-1" /><path
           d="m 1.88643,1067.8203 a 25.16061,25.16061 0 0 0 25.564974,-15.7304"
           style="fill:none;stroke:#000000"
           id="path34-8" /><path
           d="m 38.740157,1055.4198 a 77.48031,77.48031 0 0 0 -2.365353,-1.3112"
           style="fill:none;stroke:#000000"
           id="path35-3" /><path
           d="m 36.374804,1054.1086 a 77.48031,77.48031 0 0 0 -0.03351,-0.018"
           style="fill:none;stroke:#000000"
           id="path36-8" /><path
           d="m 17.429276,1047.0252 a 77.48031,77.48031 0 0 0 -1.320211,-0.2927"
           style="fill:none;stroke:#000000"
           id="path37-3" /><path
           d="m 34.478912,1053.1338 a 77.48031,77.48031 0 0 0 -17.049636,-6.1086"
           style="fill:none;stroke:#000000"
           id="path38-9" /><path
           d="m 17.287774,1041.1871 a 84.034139,84.034139 0 0 0 -1.350859,-0.2754"
           style="fill:none;stroke:#000000"
           id="path39-1" /><path
           d="m 46.436496,1053.545 a 83.360556,83.360556 0 0 0 -4.861693,-3.035"
           style="fill:none;stroke:#000000"
           id="path40-1" /><path
           d="m 36.341289,1054.0908 a 77.48031,77.48031 0 0 0 -1.656833,-0.8545"
           style="fill:none;stroke:#000000"
           id="path41-7" /><path
           d="m 34.684456,1053.2363 a 77.48031,77.48031 0 0 0 -0.205544,-0.1025"
           style="fill:none;stroke:#000000"
           id="path42-3" /><path
           d="m 39.036374,1049.1029 a 83.149602,83.149602 0 0 0 -20.331783,-7.6017"
           style="fill:none;stroke:#000000"
           id="path43-6" /><path
           d="m 74.840239,1102.4663 a 77.480315,77.480315 0 0 0 -0.745447,-2.5997"
           style="fill:none;stroke:#000000"
           id="path44-7" /><path
           d="m 74.094792,1099.8666 a 77.480315,77.480315 0 0 0 -8.387758,-18.4052"
           style="fill:none;stroke:#000000"
           id="path45-4" /><path
           d="m 65.707034,1081.4614 a 77.480317,77.480317 0 0 0 -0.726573,-1.1405"
           style="fill:none;stroke:#000000"
           id="path46-0" /><path
           d="m 81.608035,1106.5828 a 82.939722,82.939722 0 0 0 -1.291684,-5.5838"
           style="fill:none;stroke:#000000"
           id="path47-3" /><path
           d="m 69.735126,1077.2332 a 84.034134,84.034134 0 0 0 -0.76043,-1.15"
           style="fill:none;stroke:#000000"
           id="path48-7" /><path
           d="m 79.516365,1098.2091 a 83.149605,83.149605 0 0 0 -9.0015,-19.752"
           style="fill:none;stroke:#000000"
           id="path49-4" /></g><g
         inkscape:label="0"
         id="g50" /></g></g></svg>
