  0
SECTION
  2
HEADER
  9
$INSBASE
 10
0.0000
 20
0.0000
  9
$EXTMIN
 10
-0.76339695341938829
 20
-0.7633979534193881
  9
$EXTMAX
 10
22.355522953419388
 20
22.355522953419392
  9
$LIMMIN
 10
-0.76339695341938829
 20
-0.7633979534193881
  9
$LIMMAX
 10
22.355522953419388
 20
22.355522953419392
  9
$TEXTSTYLE
  7
STANDARD
  9
$CLAYER
  8
default
  0
ENDSEC
  0
SECTION
  2
TABLES
  0
TABLE
  2
LTYPE
 70
4948253
  0
LTYPE
  2
CONTINUOUS
 70
    64
  3
Solid line
 72
    65
 73
     0
 40
0.0
  0
ENDTAB
  0
TABLE
  2
LAYER
 70
     5
  0
LAYER
  2
default
 70
    64
 62
     7
  6
CONTINUOUS
  0
ENDTAB
  0
TABLE
  2
STYLE
 70
     1
  0
STYLE
  2
STANDARD
 70
     0
 40
0.0
 41
1.0
 50
0.0
 71
     0
 42
0.2
  3
txt
  4

  0
ENDTAB
  0
TABLE
  2
VIEW
 70
     0
  0
ENDTAB
  0
ENDSEC
  0
SECTION
  2
BLOCKS
  0
ENDSEC
  0
SECTION
  2
ENTITIES
  0
LINE
  8
default
 10
6
 20
0
 30
0.0
 11
18.457716000000001
 21
-9.9999999999999995e-007
 31
0.0
  0
LINE
  8
default
 10
0
 20
6
 30
0.0
 11
9.9999999999999995e-007
 21
18.457716000000001
 31
0.0
  0
LINE
  8
default
 10
12.008673
 20
12.712771999999999
 30
0.0
 11
9.8807100000000005
 21
10.586569000000001
 31
0.0
  0
LINE
  8
default
 10
12.712771999999999
 20
12.008673
 30
0.0
 11
10.586569000000001
 21
9.8807100000000005
 31
0.0
  0
LINE
  8
default
 10
10.803034
 20
16.831353
 30
0.0
 11
8.0407650000000004
 21
18.312457999999999
 31
0.0
  0
LINE
  8
default
 10
16.831353
 20
10.803034
 30
0.0
 11
18.312457999999999
 21
8.0407650000000004
 31
0.0
  0
LINE
  8
default
 10
17.480701
 20
0.49787300000000001
 30
0.0
 11
14.472552
 21
0.49911800000000001
 31
0.0
  0
LINE
  8
default
 10
0.49787300000000001
 20
17.480701
 30
0.0
 11
0.49911800000000001
 21
14.472552
 31
0.0
  0
LINE
  8
default
 10
19.540462000000002
 20
4.2626650000000001
 30
0.0
 11
18.634543000000001
 21
7.2631839999999999
 31
0.0
  0
LINE
  8
default
 10
4.2626650000000001
 20
19.540462000000002
 30
0.0
 11
7.2631839999999999
 21
18.634543000000001
 31
0.0
  0
LINE
  8
default
 10
5.5083609999999998
 20
21.299247999999999
 30
0.0
 11
5.13279
 21
19.847026
 31
0.0
  0
LINE
  8
default
 10
11.165844999999999
 20
18.955842000000001
 30
0.0
 11
10.404536
 21
17.663397
 31
0.0
  0
LINE
  8
default
 10
5.8792439999999999
 20
21.199870000000001
 30
0.0
 11
5.4783869999999997
 21
19.754424
 31
0.0
  0
LINE
  8
default
 10
18.955842000000001
 20
11.165844999999999
 30
0.0
 11
17.663397
 21
10.404536
 31
0.0
  0
LINE
  8
default
 10
21.299247999999999
 20
5.5083609999999998
 30
0.0
 11
19.847026
 21
5.13279
 31
0.0
  0
LINE
  8
default
 10
19.147825999999998
 20
10.833318
 30
0.0
 11
17.842292
 21
10.094683
 31
0.0
  0
ARC
  8
default
 10
16.165303561411569
 20
16.165303561411569
 30
0
 40
4.4034752474683856
 50
151.75000000000003
 51
298.25
  0
ARC
  8
default
 10
22.861709024698037
 20
-0.0003846364067987551
 30
0
 40
4.4039930414075199
 50
106.75500890514625
 51
179.99500890514628
  0
ARC
  8
default
 10
0.00038491499369616613
 20
22.860673766784679
 30
0
 40
4.4029577835223739
 50
269.99500410634397
 51
343.25500410634402
  0
ARC
  8
default
 10
-8.8817841970012523e-016
 20
-8.8817841970012523e-016
 30
0
 40
6.0000000000000009
 50
8.4814791505693754e-015
 51
90
  0
ARC
  8
default
 10
14.176669350321895
 20
15.58316798777995
 30
0
 40
3.5971351519886348
 50
159.69642360223617
 51
232.93642360223618
  0
ARC
  8
default
 10
15.583167987779952
 20
14.176669350321895
 30
0
 40
3.5971351519886348
 50
217.0635763977638
 51
290.30357639776383
  0
ARC
  8
default
 10
14.158405264462463
 20
15.687354584033681
 30
0
 40
6.6570782141935503
 50
156.7756392006994
 51
230.01563920069938
  0
ARC
  8
default
 10
15.687354584033681
 20
14.158405264462463
 30
0
 40
6.6570782141935503
 50
219.98436079930062
 51
293.2243607993006
  0
ARC
  8
default
 10
21.043382323090544
 20
0.99454454133938786
 30
0
 40
3.5971350864089922
 50
114.69642366085071
 51
187.93642366085064
  0
ARC
  8
default
 10
0.99454454133938786
 20
21.043382323090544
 30
0
 40
3.5971350864089922
 50
262.06357633914934
 51
335.30357633914929
  0
ARC
  8
default
 10
21.104139387211497
 20
1.0811306454902612
 30
0
 40
6.6570781874432861
 50
111.77563834821751
 51
185.01563834821752
  0
ARC
  8
default
 10
1.0811306454902605
 20
21.104139387211497
 30
0
 40
6.6570781874432861
 50
264.98436165178248
 51
338.22436165178249
  0
ARC
  8
default
 10
-2.3964471562720746e-006
 20
1.2262224480252826e-006
 30
0
 40
20.499999256201107
 50
59.499992431472364
 51
74.499991630556323
  0
ARC
  8
default
 10
2.3659890569405206e-005
 20
-5.9998413526329841e-006
 30
0
 40
20.499999256216743
 50
74.500067204424752
 51
75.500068005340793
  0
ARC
  8
default
 10
0.014069877310650902
 20
0.062000798821951975
 30
0
 40
21.936451482060811
 50
75.495029699567354
 51
78.955029699567348
  0
ARC
  8
default
 10
-0.03412163832075521
 20
-0.054096391049071713
 30
0
 40
22.063930074467223
 50
56.054949623371748
 51
59.494949623371753
  0
ARC
  8
default
 10
2.0449648001630294e-006
 20
-4.6440434466887837e-006
 30
0
 40
22.00000388384062
 50
59.500009071699246
 51
74.500009071699239
  0
ARC
  8
default
 10
-1.0115578703562278e-006
 20
3.0632631657923071e-006
 30
0
 40
20.499999583791315
 50
14.499991217654875
 51
29.499990878703429
  0
ARC
  8
default
 10
3.2013388626239703e-005
 20
-5.530812627263515e-005
 30
0
 40
20.499999583887444
 50
29.50017832292037
 51
30.500178661871825
  0
ARC
  8
default
 10
0.062000798821951975
 20
0.014069877310650014
 30
0
 40
21.936451482060811
 50
11.044970300432654
 51
14.504970300432653
  0
ARC
  8
default
 10
-0.05409639104906816
 20
-0.034121638320756986
 30
0
 40
22.063930074467223
 50
30.505050376628262
 51
33.945050376628267
  0
ARC
  8
default
 10
4.9835827056199378e-006
 20
3.2476463145414414e-006
 30
0
 40
21.999994504551946
 50
14.499997415159077
 51
29.499997415159079
  0
ENDSEC
  0
EOF
