<?xml version="1.0" encoding="UTF-8" standalone="no"?>
<!-- Created with Inkscape (http://www.inkscape.org/) -->

<svg
   width="21.854271mm"
   height="21.854326mm"
   viewBox="0 0 21.854271 21.854326"
   version="1.1"
   id="svg1"
   xml:space="preserve"
   xmlns:inkscape="http://www.inkscape.org/namespaces/inkscape"
   xmlns:sodipodi="http://sodipodi.sourceforge.net/DTD/sodipodi-0.dtd"
   xmlns="http://www.w3.org/2000/svg"
   xmlns:svg="http://www.w3.org/2000/svg"><sodipodi:namedview
     id="namedview1"
     pagecolor="#ffffff"
     bordercolor="#000000"
     borderopacity="0.25"
     inkscape:showpageshadow="2"
     inkscape:pageopacity="0.0"
     inkscape:pagecheckerboard="0"
     inkscape:deskcolor="#d1d1d1"
     inkscape:document-units="mm" /><defs
     id="defs1" /><g
     inkscape:label="Réteg 1"
     inkscape:groupmode="layer"
     id="layer1"
     transform="translate(-139.23299,-110.6623)"><g
       id="g4"
       transform="matrix(0.26458333,0,0,0.26458333,139.36529,-164.61574)"><g
         inkscape:label="default"
         id="g38"><path
           style="fill:none;stroke:#000000"
           d="M 22.6772,1122.52 H 69.7614"
           id="path5-8" /><path
           style="fill:none;stroke:#000000"
           d="m 0,1099.84 4e-6,-47.08"
           id="path6-9" /><path
           style="fill:none;stroke:#000000"
           d="m 45.3871,1074.47 -8.0427,8.04"
           id="path7-31" /><path
           style="fill:none;stroke:#000000"
           d="m 48.0483,1077.13 -8.0361,8.05"
           id="path8-8" /><path
           style="fill:none;stroke:#000000"
           d="m 40.8304,1058.91 -10.4401,-5.6"
           id="path9-2" /><path
           style="fill:none;stroke:#000000"
           d="m 63.6146,1081.69 5.5978,10.44"
           id="path10-22" /><path
           style="fill:none;stroke:#000000"
           d="m 66.0688,1120.64 -11.3694,-0.01"
           id="path11-8" /><path
           style="fill:none;stroke:#000000"
           d="m 1.88173,1056.45 0.0047,11.37"
           id="path12-6" /><path
           style="fill:none;stroke:#000000"
           d="m 73.8537,1106.41 -3.4239,-11.34"
           id="path13-8" /><path
           style="fill:none;stroke:#000000"
           d="m 16.1109,1048.67 11.3405,3.42"
           id="path14-1" /><path
           style="fill:none;stroke:#000000"
           d="m 21.5908,1042.22 -1.4721,5.48"
           id="path15-1" /><path
           style="fill:none;stroke:#000000"
           d="m 41.5119,1050.47 -2.8303,4.92"
           id="path16-9" /><path
           style="fill:none;stroke:#000000"
           d="m 72.0459,1081.01 -4.9122,2.83"
           id="path17-9" /><path
           style="fill:none;stroke:#000000"
           d="m 80.2975,1100.93 -5.4748,1.47"
           id="path18-7" /><path
           d="m 46.436496,1053.545 a 16.643056,16.643056 0 0 0 22.5382,22.5382"
           style="fill:none;stroke:#000000"
           id="path19-5" /><path
           d="m 81.608035,1106.5828 a 16.645013,16.645013 0 0 0 -11.846589,15.9369"
           style="fill:none;stroke:#000000"
           id="path20-6" /><path
           d="m 4e-6,1052.7582 a 16.6411,16.6411 0 0 0 15.936911,-11.8465"
           style="fill:none;stroke:#000000"
           id="path21-70" /><path
           d="M 22.677165,1122.5197 A 22.677165,22.677165 0 0 0 0,1099.8425"
           style="fill:none;stroke:#000000"
           id="path22-5" /><path
           d="m 40.830365,1058.9051 a 13.595471,13.595471 0 0 0 4.556746,15.5663"
           style="fill:none;stroke:#000000"
           id="path23-8" /><path
           d="m 48.048272,1077.1326 a 13.595471,13.595471 0 0 0 15.566291,4.5567"
           style="fill:none;stroke:#000000"
           id="path24-81" /><path
           d="m 30.390293,1053.3072 a 25.160611,25.160611 0 0 0 6.954123,29.2003"
           style="fill:none;stroke:#000000"
           id="path25-7" /><path
           d="m 40.012229,1085.1753 a 25.160611,25.160611 0 0 0 29.200211,6.9541"
           style="fill:none;stroke:#000000"
           id="path26-0" /><path
           d="m 73.853715,1106.4088 a 13.595471,13.595471 0 0 0 -7.784924,14.2292"
           style="fill:none;stroke:#000000"
           id="path27-2" /><path
           d="M 1.881725,1056.4509 A 13.595471,13.595471 0 0 0 16.11086,1048.666"
           style="fill:none;stroke:#000000"
           id="path28-0" /><path
           d="m 70.429769,1095.0683 a 25.16061,25.16061 0 0 0 -15.73036,25.565"
           style="fill:none;stroke:#000000"
           id="path29-0" /><path
           d="m 1.88643,1067.8203 a 25.16061,25.16061 0 0 0 25.564974,-15.7304"
           style="fill:none;stroke:#000000"
           id="path30-9" /><path
           d="m 38.681586,1055.386 a 77.480319,77.480319 0 0 0 -18.562904,-7.689"
           style="fill:none;stroke:#000000"
           id="path31-7" /><path
           d="m 21.590786,1042.2221 a 83.14965,83.14965 0 0 0 -5.653871,-1.3104"
           style="fill:none;stroke:#000000"
           id="path32-9" /><path
           d="m 46.436496,1053.545 a 83.149596,83.149596 0 0 0 -4.924546,-3.0712"
           style="fill:none;stroke:#000000"
           id="path33-9" /><path
           d="m 41.51195,1050.4738 a 83.149605,83.149605 0 0 0 -19.921164,-8.2517"
           style="fill:none;stroke:#000000"
           id="path34-91" /><path
           d="m 81.608035,1106.5828 a 83.14965,83.14965 0 0 0 -1.310494,-5.6539"
           style="fill:none;stroke:#000000"
           id="path35-4" /><path
           d="m 72.045925,1081.0077 a 83.149596,83.149596 0 0 0 -3.071229,-4.9245"
           style="fill:none;stroke:#000000"
           id="path36-4" /><path
           d="m 80.297541,1100.9289 a 83.149605,83.149605 0 0 0 -8.251616,-19.9212"
           style="fill:none;stroke:#000000"
           id="path37-2" /><path
           d="M 74.822706,1102.401 A 77.480319,77.480319 0 0 0 67.1337,1083.8381"
           style="fill:none;stroke:#000000"
           id="path38-5" /></g><g
         inkscape:label="0"
         id="g39" /></g></g></svg>
