  0
SECTION
  2
HEADER
  9
$INSBASE
 10
0.0000
 20
0.0000
  9
$EXTMIN
 10
-1.5291184319935816
 20
-1.5291194319935788
  9
$EXTMAX
 10
44.779118431993581
 20
44.779118431993595
  9
$LIMMIN
 10
-1.5291184319935816
 20
-1.5291194319935788
  9
$LIMMAX
 10
44.779118431993581
 20
44.779118431993595
  9
$TEXTSTYLE
  7
STANDARD
  9
$CLAYER
  8
default
  0
ENDSEC
  0
SECTION
  2
TABLES
  0
TABLE
  2
LTYPE
 70
4948253
  0
LTYPE
  2
CONTINUOUS
 70
    64
  3
Solid line
 72
    65
 73
     0
 40
0.0
  0
ENDTAB
  0
TABLE
  2
LAYER
 70
     5
  0
LAYER
  2
default
 70
    64
 62
     7
  6
CONTINUOUS
  0
ENDTAB
  0
TABLE
  2
STYLE
 70
     1
  0
STYLE
  2
STANDARD
 70
     0
 40
0.0
 41
1.0
 50
0.0
 71
     0
 42
0.2
  3
txt
  4

  0
ENDTAB
  0
TABLE
  2
VIEW
 70
     0
  0
ENDTAB
  0
ENDSEC
  0
SECTION
  2
BLOCKS
  0
ENDSEC
  0
SECTION
  2
ENTITIES
  0
LINE
  8
default
 10
0
 20
22.5
 30
0.0
 11
0
 21
43.25
 31
0.0
  0
LINE
  8
default
 10
22.300000000000001
 20
0
 30
0.0
 11
22.5
 21
0
 31
0.0
  0
LINE
  8
default
 10
22.5
 20
0
 30
0.0
 11
43.25
 21
0
 31
0.0
  0
LINE
  8
default
 10
5.3875970000000004
 20
21.845452999999999
 30
0.0
 11
5.5311120000000003
 21
22.381059
 31
0.0
  0
LINE
  8
default
 10
5.5311120000000003
 20
22.381059
 30
0.0
 11
3.5392379999999992
 21
24.954274000000002
 31
0.0
  0
LINE
  8
default
 10
3.5392379999999992
 20
24.954274000000002
 30
0.0
 11
3.726719999999998
 21
36.820067000000002
 31
0.0
  0
LINE
  8
default
 10
15.588523
 20
16.224919
 30
0.0
 11
15.980613
 21
16.617008999999999
 31
0.0
  0
LINE
  8
default
 10
15.980613
 20
16.617008999999999
 30
0.0
 11
15.542206999999999
 21
19.841415999999999
 31
0.0
  0
LINE
  8
default
 10
15.542206999999999
 20
19.841415999999999
 30
0.0
 11
21.637467999999998
 21
30.023754
 31
0.0
  0
LINE
  8
default
 10
21.612515999999999
 20
6.2569299999999979
 30
0.0
 11
22.148122000000001
 21
6.4004459999999979
 31
0.0
  0
LINE
  8
default
 10
22.148122000000001
 20
6.4004459999999979
 30
0.0
 11
23.380654
 21
9.4120670000000004
 31
0.0
  0
LINE
  8
default
 10
23.380654
 20
9.4120670000000004
 30
0.0
 11
33.750473
 21
15.182600000000001
 31
0.0
  0
LINE
  8
default
 10
6.2569299999999979
 20
21.612515999999999
 30
0.0
 11
6.4004459999999979
 21
22.148122000000001
 31
0.0
  0
LINE
  8
default
 10
6.4004459999999979
 20
22.148122000000001
 30
0.0
 11
9.4120670000000004
 21
23.380654
 31
0.0
  0
LINE
  8
default
 10
9.4120670000000004
 20
23.380654
 30
0.0
 11
15.182600000000001
 21
33.750473
 31
0.0
  0
LINE
  8
default
 10
16.224919
 20
15.588523
 30
0.0
 11
16.617008999999999
 21
15.980613
 31
0.0
  0
LINE
  8
default
 10
16.617008999999999
 20
15.980613
 30
0.0
 11
19.841415999999999
 21
15.542206999999999
 31
0.0
  0
LINE
  8
default
 10
19.841415999999999
 20
15.542206999999999
 30
0.0
 11
30.023754
 21
21.637467999999998
 31
0.0
  0
LINE
  8
default
 10
21.845452999999999
 20
5.3875970000000004
 30
0.0
 11
22.381059
 21
5.5311120000000003
 31
0.0
  0
LINE
  8
default
 10
22.381059
 20
5.5311120000000003
 30
0.0
 11
24.954274000000002
 21
3.5392379999999992
 31
0.0
  0
LINE
  8
default
 10
24.954274000000002
 20
3.5392379999999992
 30
0.0
 11
36.820067000000002
 21
3.726719999999998
 31
0.0
  0
LINE
  8
default
 10
1.4000000000000001e-015
 20
22.300000000000001
 30
0.0
 11
0
 21
22.5
 31
0.0
  0
LINE
  8
default
 10
3.5392379999999992
 20
24.954274000000002
 30
0.0
 11
6.4756524539505369
 21
24.167464012338922
 31
0.0
  0
LINE
  8
default
 10
6.4756524539505369
 20
24.167464012338922
 30
0.0
 11
9.4120670000000004
 21
23.380654
 31
0.0
  0
LINE
  8
default
 10
9.5784164450395721
 20
35.74713530974455
 30
0.0
 11
6.4756524539505369
 21
24.167464012338922
 31
0.0
  0
LINE
  8
default
 10
15.542206999999999
 20
19.841415999999999
 30
0.0
 11
17.6918115
 21
17.6918115
 31
0.0
  0
LINE
  8
default
 10
17.6918115
 20
17.6918115
 30
0.0
 11
19.841415999999999
 21
15.542206999999999
 31
0.0
  0
LINE
  8
default
 10
17.6918115
 20
17.6918115
 30
0.0
 11
26.168719864704961
 21
26.168719864704961
 31
0.0
  0
LINE
  8
default
 10
23.380654
 20
9.4120670000000004
 30
0.0
 11
24.167463999999999
 21
6.4756524999999989
 31
0.0
  0
LINE
  8
default
 10
24.167463999999999
 20
6.4756524999999989
 30
0.0
 11
24.954274000000002
 21
3.5392379999999992
 31
0.0
  0
LINE
  8
default
 10
24.167463999999999
 20
6.4756524999999989
 30
0.0
 11
35.747135297405627
 21
9.578416491089035
 31
0.0
  0
LINE
  8
default
 10
0
 20
22.100000000000001
 30
0.0
 11
9.9999999999999995e-007
 21
18.457716000000001
 31
0.0
  0
LINE
  8
default
 10
22.100000000000001
 20
0
 30
0.0
 11
18.457716000000001
 21
-9.9999999999999995e-007
 31
0.0
  0
LINE
  8
default
 10
6
 20
0
 30
0.0
 11
18.457716000000001
 21
-9.9999999999999995e-007
 31
0.0
  0
LINE
  8
default
 10
0
 20
6
 30
0.0
 11
9.9999999999999995e-007
 21
18.457716000000001
 31
0.0
  0
LINE
  8
default
 10
12.171963999999999
 20
12.52514
 30
0.0
 11
10.473556
 21
10.826929
 31
0.0
  0
LINE
  8
default
 10
12.52514
 20
12.171963999999999
 30
0.0
 11
10.826929
 21
10.473556
 31
0.0
  0
LINE
  8
default
 10
10.896512
 20
17.364217
 30
0.0
 11
8.7339669999999998
 21
18.54637
 31
0.0
  0
LINE
  8
default
 10
17.364217
 20
10.896512
 30
0.0
 11
18.54637
 21
8.7339669999999998
 31
0.0
  0
LINE
  8
default
 10
17.46349
 20
0.24973300000000001
 30
0.0
 11
15.061717
 21
0.24987200000000001
 31
0.0
  0
LINE
  8
default
 10
0.24973300000000001
 20
17.46349
 30
0.0
 11
0.24987200000000001
 21
15.061717
 31
0.0
  0
LINE
  8
default
 10
19.983353000000001
 20
4.5733579999999998
 30
0.0
 11
19.290111
 21
6.9384170000000003
 31
0.0
  0
LINE
  8
default
 10
4.5733579999999998
 20
19.983353000000001
 30
0.0
 11
6.9384170000000003
 21
19.290111
 31
0.0
  0
ARC
  8
default
 10
0
 20
-3.5527136788005009e-015
 30
0
 40
43.250000000000007
 50
4.7064855402003483e-015
 51
90
  0
ARC
  8
default
 10
-0.00054927322929465561
 20
-0.0020490425187418282
 30
0
 40
37.010279194892277
 50
65.77999904146516
 51
74.999999041465173
  0
ARC
  8
default
 10
-0.00054927322918629784
 20
-0.0020490425187773553
 30
0
 40
37.010279194892291
 50
74.999999041465344
 51
84.219999041465343
  0
ARC
  8
default
 10
-0.001498769289522528
 20
-0.0014987692895367388
 30
0
 40
37.010278122464108
 50
35.780000000000022
 51
45.000000000000021
  0
ARC
  8
default
 10
-0.0014987692895402915
 20
-0.0014987692895331861
 30
0
 40
37.010278122464115
 50
44.999999999999993
 51
54.219999999999992
  0
ARC
  8
default
 10
-0.0020490425187702499
 20
-0.00054927322921871635
 30
0
 40
37.010279194892284
 50
5.780000958534715
 51
15.000001032338902
  0
ARC
  8
default
 10
-0.002049042518756039
 20
-0.0005492732292662339
 30
0
 40
37.010279194892284
 50
15.000001032338982
 51
24.220000958534794
  0
ARC
  8
default
 10
0.0011777812104787344
 20
0.0096804441961317877
 30
0
 40
22.490319586643103
 50
76.14300048615678
 51
90.003000486156779
  0
ARC
  8
default
 10
-0.0032871161942988891
 20
-0.0056957734470373111
 30
0
 40
22.50638572990999
 50
46.150003364023817
 51
73.850003364023806
  0
ARC
  8
default
 10
-0.0056957734470373111
 20
-0.0032871161942997773
 30
0
 40
22.50638572990999
 50
16.149996635976198
 51
43.849996635976197
  0
ARC
  8
default
 10
-0.022661355383149839
 20
-0.0027514710868299375
 30
0
 40
22.52266152344928
 50
0.0069995138432295207
 51
13.84699951384323
  0
ARC
  8
default
 10
-3.5527136788005009e-015
 20
-1.7763568394002505e-015
 30
0
 40
22.300000000000004
 50
4.5640246550149114e-015
 51
89.999999999999986
  0
ARC
  8
default
 10
16.165303561411569
 20
16.165303561411569
 30
0
 40
4.4034752474683856
 50
151.75000000000003
 51
298.25
  0
ARC
  8
default
 10
22.861709024698037
 20
-0.0003846364067987551
 30
0
 40
4.4039930414075199
 50
106.75500890514625
 51
179.99500890514628
  0
ARC
  8
default
 10
0.00038491499369616613
 20
22.860673766784679
 30
0
 40
4.4029577835223739
 50
269.99500410634397
 51
343.25500410634402
  0
ARC
  8
default
 10
3.9519329320114593e-007
 20
-1.3797981210927901e-006
 30
0
 40
22.000000709291228
 50
56.050001904307074
 51
78.950001904307072
  0
ARC
  8
default
 10
-1.3797981210927901e-006
 20
3.9519329320114593e-007
 30
0
 40
22.000000709291228
 50
11.049998095692933
 51
33.949998095692933
  0
ARC
  8
default
 10
0
 20
0
 30
0
 40
22.100000000000005
 50
0
 51
90
  0
ARC
  8
default
 10
-8.8817841970012523e-016
 20
-8.8817841970012523e-016
 30
0
 40
6.0000000000000009
 50
8.4814791505693754e-015
 51
90
  0
ARC
  8
default
 10
14.788588083735871
 20
15.802438631322788
 30
0
 40
4.1937343638405151
 50
158.13582561842122
 51
231.39582561842121
  0
ARC
  8
default
 10
15.802438631322788
 20
14.788588083735871
 30
0
 40
4.1937343638405151
 50
218.60417438157879
 51
291.86417438157878
  0
ARC
  8
default
 10
14.797091309083445
 20
15.856975098609233
 30
0
 40
6.632821520516381
 50
156.07956091124021
 51
229.31956091124016
  0
ARC
  8
default
 10
15.856975098609233
 20
14.797091309083445
 30
0
 40
6.632821520516381
 50
220.68043908875981
 51
293.92043908875979
  0
ARC
  8
default
 10
21.63218271675111
 20
0.716282898380733
 30
0
 40
4.1947190340203742
 50
113.1458300690324
 51
186.38583006903238
  0
ARC
  8
default
 10
0.71628289838073278
 20
21.63218271675111
 30
0
 40
4.1947190340203742
 50
263.61416993096759
 51
336.8541699309676
  0
ARC
  8
default
 10
21.675698392146533
 20
0.74945087454841985
 30
0
 40
6.6328220922587429
 50
111.07956317423161
 51
184.31956317423158
  0
ARC
  8
default
 10
0.75048766875547657
 20
21.674058373569824
 30
0
 40
6.6312649237100132
 50
265.67043682576838
 51
338.93043682576837
  0
ENDSEC
  0
EOF
