<?xml version="1.0" encoding="UTF-8" standalone="no"?>
<!-- Created with Inkscape (http://www.inkscape.org/) -->

<svg
   width="21.854254mm"
   height="21.854336mm"
   viewBox="0 0 21.854254 21.854336"
   version="1.1"
   id="svg1"
   xml:space="preserve"
   xmlns:inkscape="http://www.inkscape.org/namespaces/inkscape"
   xmlns:sodipodi="http://sodipodi.sourceforge.net/DTD/sodipodi-0.dtd"
   xmlns="http://www.w3.org/2000/svg"
   xmlns:svg="http://www.w3.org/2000/svg"><sodipodi:namedview
     id="namedview1"
     pagecolor="#ffffff"
     bordercolor="#000000"
     borderopacity="0.25"
     inkscape:showpageshadow="2"
     inkscape:pageopacity="0.0"
     inkscape:pagecheckerboard="0"
     inkscape:deskcolor="#d1d1d1"
     inkscape:document-units="mm" /><defs
     id="defs1" /><g
     inkscape:label="Réteg 1"
     inkscape:groupmode="layer"
     id="layer1"
     transform="translate(-87.531046,-139.08223)"><g
       id="g3"
       transform="matrix(0.26458333,0,0,0.26458333,87.663333,-136.19582)"><g
         inkscape:label="default"
         id="g42"><path
           style="fill:none;stroke:#000000"
           d="M 22.6772,1122.52 H 69.7614"
           id="path5-0" /><path
           style="fill:none;stroke:#000000"
           d="m 0,1099.84 4e-6,-47.08"
           id="path6-2" /><path
           style="fill:none;stroke:#000000"
           d="m 45.3871,1074.47 -8.0427,8.04"
           id="path7-12" /><path
           style="fill:none;stroke:#000000"
           d="m 48.0483,1077.13 -8.0361,8.05"
           id="path8-9" /><path
           style="fill:none;stroke:#000000"
           d="m 40.8304,1058.91 -10.4401,-5.6"
           id="path9-9" /><path
           style="fill:none;stroke:#000000"
           d="m 63.6146,1081.69 5.5978,10.44"
           id="path10-6" /><path
           style="fill:none;stroke:#000000"
           d="m 66.0688,1120.64 -11.3694,-0.01"
           id="path11-6" /><path
           style="fill:none;stroke:#000000"
           d="m 1.88173,1056.45 0.0047,11.37"
           id="path12-8" /><path
           style="fill:none;stroke:#000000"
           d="m 73.8537,1106.41 -3.4239,-11.34"
           id="path13-3" /><path
           style="fill:none;stroke:#000000"
           d="m 16.1109,1048.67 11.3405,3.42"
           id="path14-9" /><path
           style="fill:none;stroke:#000000"
           d="m 20.819,1042.02 -1.4195,5.49"
           id="path15-81" /><path
           style="fill:none;stroke:#000000"
           d="m 42.2016,1050.88 -2.8774,4.88"
           id="path16-7" /><path
           style="fill:none;stroke:#000000"
           d="m 22.2208,1042.39 -1.5151,5.47"
           id="path17-0" /><path
           style="fill:none;stroke:#000000"
           d="m 71.6441,1080.32 -4.8848,2.88"
           id="path18-6" /><path
           style="fill:none;stroke:#000000"
           d="m 80.5011,1101.7 -5.4887,1.42"
           id="path19-9" /><path
           style="fill:none;stroke:#000000"
           d="m 72.3697,1081.57 -4.9343,2.8"
           id="path20-2" /><path
           d="m 46.436496,1053.545 a 16.643056,16.643056 0 0 0 22.5382,22.5382"
           style="fill:none;stroke:#000000"
           id="path21-2" /><path
           d="m 81.608035,1106.5828 a 16.645013,16.645013 0 0 0 -11.846589,15.9369"
           style="fill:none;stroke:#000000"
           id="path22-2" /><path
           d="m 4e-6,1052.7582 a 16.6411,16.6411 0 0 0 15.936911,-11.8465"
           style="fill:none;stroke:#000000"
           id="path23-5" /><path
           d="M 22.677165,1122.5197 A 22.677165,22.677165 0 0 0 0,1099.8425"
           style="fill:none;stroke:#000000"
           id="path24-6" /><path
           d="m 40.830365,1058.9051 a 13.595471,13.595471 0 0 0 4.556746,15.5663"
           style="fill:none;stroke:#000000"
           id="path25-0" /><path
           d="m 48.048272,1077.1326 a 13.595471,13.595471 0 0 0 15.566291,4.5567"
           style="fill:none;stroke:#000000"
           id="path26-87" /><path
           d="m 30.390293,1053.3072 a 25.160611,25.160611 0 0 0 6.954123,29.2003"
           style="fill:none;stroke:#000000"
           id="path27-72" /><path
           d="m 40.012229,1085.1753 a 25.160611,25.160611 0 0 0 29.200211,6.9541"
           style="fill:none;stroke:#000000"
           id="path28-7" /><path
           d="m 73.853715,1106.4088 a 13.595471,13.595471 0 0 0 -7.784924,14.2292"
           style="fill:none;stroke:#000000"
           id="path29-5" /><path
           d="M 1.881725,1056.4509 A 13.595471,13.595471 0 0 0 16.11086,1048.666"
           style="fill:none;stroke:#000000"
           id="path30-9" /><path
           d="m 70.429769,1095.0683 a 25.16061,25.16061 0 0 0 -15.73036,25.565"
           style="fill:none;stroke:#000000"
           id="path31-3" /><path
           d="m 1.88643,1067.8203 a 25.16061,25.16061 0 0 0 25.564974,-15.7304"
           style="fill:none;stroke:#000000"
           id="path32-00" /><path
           d="m 39.324231,1055.7604 a 77.480312,77.480312 0 0 0 -18.618516,-7.9031"
           style="fill:none;stroke:#000000"
           id="path33-4" /><path
           d="m 20.705715,1047.8573 a 77.480312,77.480312 0 0 0 -1.306194,-0.35"
           style="fill:none;stroke:#000000"
           id="path34-3" /><path
           d="m 20.819002,1042.0186 a 82.909423,82.909423 0 0 0 -4.882087,-1.1069"
           style="fill:none;stroke:#000000"
           id="path35-2" /><path
           d="m 46.436496,1053.545 a 83.391232,83.391232 0 0 0 -4.234877,-2.6694"
           style="fill:none;stroke:#000000"
           id="path36-5" /><path
           d="m 42.201619,1050.8756 a 83.149621,83.149621 0 0 0 -19.980854,-8.4814"
           style="fill:none;stroke:#000000"
           id="path37-2" /><path
           d="m 75.012382,1103.1202 a 77.480313,77.480313 0 0 0 -7.576948,-18.7536"
           style="fill:none;stroke:#000000"
           id="path38-5" /><path
           d="m 67.435434,1084.3666 a 77.480313,77.480313 0 0 0 -0.676138,-1.1711"
           style="fill:none;stroke:#000000"
           id="path39-5" /><path
           d="m 81.608035,1106.5828 a 82.909423,82.909423 0 0 0 -1.10694,-4.8821"
           style="fill:none;stroke:#000000"
           id="path40-9" /><path
           d="m 71.644127,1080.3181 a 83.391232,83.391232 0 0 0 -2.669431,-4.2349"
           style="fill:none;stroke:#000000"
           id="path41-9" /><path
           d="m 80.501095,1101.7007 a 83.149586,83.149586 0 0 0 -8.131359,-20.1258"
           style="fill:none;stroke:#000000"
           id="path42-9" /></g><g
         inkscape:label="0"
         id="g43" /></g></g></svg>
