  0
SECTION
  2
HEADER
  9
$INSBASE
 10
0.0000
 20
0.0000
  9
$EXTMIN
 10
-46.308236828631848
 20
-45.908236828631757
  9
$EXTMAX
 10
46.308236828631848
 20
46.708236828631925
  9
$LIMMIN
 10
-46.308236828631848
 20
-45.908236828631757
  9
$LIMMAX
 10
46.308236828631848
 20
46.708236828631925
  9
$TEXTSTYLE
  7
STANDARD
  9
$CLAYER
  8
default
  0
ENDSEC
  0
SECTION
  2
TABLES
  0
TABLE
  2
LTYPE
 70
4948253
  0
LTYPE
  2
CONTINUOUS
 70
    64
  3
Solid line
 72
    65
 73
     0
 40
0.0
  0
ENDTAB
  0
TABLE
  2
LAYER
 70
     5
  0
LAYER
  2
default
 70
    64
 62
     7
  6
CONTINUOUS
  0
LAYER
  2
layer1
 70
    64
 62
     7
  6
CONTINUOUS
  0
ENDTAB
  0
TABLE
  2
STYLE
 70
     1
  0
STYLE
  2
STANDARD
 70
     0
 40
0.0
 41
1.0
 50
0.0
 71
     0
 42
0.2
  3
txt
  4

  0
ENDTAB
  0
TABLE
  2
VIEW
 70
     0
  0
ENDTAB
  0
ENDSEC
  0
SECTION
  2
BLOCKS
  0
ENDSEC
  0
SECTION
  2
ENTITIES
  0
LINE
  8
layer1
 10
-0.45000020135449059
 20
22.495499950621209
 30
0.0
 11
-0.45000038986579671
 21
23.050000033994486
 31
0.0
  0
LINE
  8
layer1
 10
-0.45000038986579671
 20
23.050000033994486
 30
0.0
 11
-3.0399999783229936
 21
25.019999932444367
 31
0.0
  0
LINE
  8
layer1
 10
0.44999952689990641
 20
22.495500023359021
 30
0.0
 11
0.45000030431442672
 21
23.050000365551341
 31
0.0
  0
LINE
  8
layer1
 10
0.45000030431442672
 20
23.050000365551341
 30
0.0
 11
3.0400000519106398
 21
25.019999727509756
 31
0.0
  0
LINE
  8
layer1
 10
-0.45000038986579671
 20
23.050000033994486
 30
0.0
 11
0.45000030431442672
 21
23.050000365551341
 31
0.0
  0
LINE
  8
layer1
 10
-5.9299994862028411
 20
36.529999752758322
 30
0.0
 11
-4.6670371024457591
 21
31.500000000000004
 31
0.0
  0
LINE
  8
layer1
 10
5.9300002565980003
 20
36.529999554345416
 30
0.0
 11
4.6670376188624942
 21
31.5
 31
0.0
  0
LINE
  8
layer1
 10
-4.6670371024457591
 20
31.500000000000004
 30
0.0
 11
-3.0399999783229936
 21
25.019999932444367
 31
0.0
  0
LINE
  8
layer1
 10
4.6670376188624942
 20
31.5
 30
0.0
 11
3.0400000519106398
 21
25.019999727509756
 31
0.0
  0
LINE
  8
layer1
 10
-4.6670371024457591
 20
31.500000000000004
 30
0.0
 11
4.6670376188624942
 21
31.5
 31
0.0
  0
LINE
  8
layer1
 10
-11.637461581391705
 20
19.256674327392307
 30
0.0
 11
-11.914711786333923
 21
19.7368853917385
 31
0.0
  0
LINE
  8
layer1
 10
-11.914711786333923
 20
19.7368853917385
 30
0.0
 11
-15.142717174954036
 21
20.147955555020264
 31
0.0
  0
LINE
  8
layer1
 10
-10.858038989693211
 20
19.706674254512301
 30
0.0
 11
-11.135288487528648
 21
20.186886025965276
 31
0.0
  0
LINE
  8
layer1
 10
-11.135288487528648
 20
20.186886025965276
 30
0.0
 11
-9.8772825912942501
 21
23.187955392658502
 31
0.0
  0
LINE
  8
layer1
 10
-11.914711786333923
 20
19.7368853917385
 30
0.0
 11
-11.135288487528648
 21
20.186886025965276
 31
0.0
  0
LINE
  8
layer1
 10
-23.400530075859486
 20
28.670908043026554
 30
0.0
 11
-19.791772691122546
 21
24.946281667986941
 31
0.0
  0
LINE
  8
layer1
 10
-13.129468910510596
 20
34.600907742596355
 30
0.0
 11
-11.708226861647441
 21
29.613319028641065
 31
0.0
  0
LINE
  8
layer1
 10
-19.791772691122546
 20
24.946281667986941
 30
0.0
 11
-15.142717174954036
 21
20.147955555020264
 31
0.0
  0
LINE
  8
layer1
 10
-11.708226861647441
 20
29.613319028641065
 30
0.0
 11
-9.8772825912942501
 21
23.187955392658502
 31
0.0
  0
LINE
  8
layer1
 10
-19.791772691122546
 20
24.946281667986941
 30
0.0
 11
-11.708226861647441
 21
29.613319028641065
 31
0.0
  0
LINE
  8
layer1
 10
-19.706674528746795
 20
10.858038369229504
 30
0.0
 11
-20.1868857816043
 21
11.135288247660563
 31
0.0
  0
LINE
  8
layer1
 10
-20.1868857816043
 20
11.135288247660563
 30
0.0
 11
-23.187955533343256
 21
9.877282757490331
 31
0.0
  0
LINE
  8
layer1
 10
-19.256674727612388
 20
11.63746103366581
 30
0.0
 11
-19.736885721650843
 21
11.914711878022693
 31
0.0
  0
LINE
  8
layer1
 10
-19.736885721650843
 20
11.914711878022693
 30
0.0
 11
-20.14795534074786
 21
15.142717136215508
 31
0.0
  0
LINE
  8
layer1
 10
-20.1868857816043
 20
11.135288247660563
 30
0.0
 11
-19.736885721650843
 21
11.914711878022693
 31
0.0
  0
LINE
  8
layer1
 10
-34.600907529229389
 20
13.129469676898836
 30
0.0
 11
-29.613318770432699
 21
11.708227308877461
 31
0.0
  0
LINE
  8
layer1
 10
-28.670907485998352
 20
23.40053064383482
 30
0.0
 11
-24.946281409778567
 21
19.791773138352561
 31
0.0
  0
LINE
  8
layer1
 10
-29.613318770432699
 20
11.708227308877461
 30
0.0
 11
-23.187955533343256
 21
9.877282757490331
 31
0.0
  0
LINE
  8
layer1
 10
-24.946281409778567
 20
19.791773138352561
 30
0.0
 11
-20.14795534074786
 21
15.142717136215508
 31
0.0
  0
LINE
  8
layer1
 10
-29.613318770432699
 20
11.708227308877461
 30
0.0
 11
-24.946281409778567
 21
19.791773138352561
 31
0.0
  0
LINE
  8
layer1
 10
-22.495499950621209
 20
-0.4500002013544892
 30
0.0
 11
-23.050000033994486
 21
-0.45000038986579532
 31
0.0
  0
LINE
  8
layer1
 10
-23.050000033994486
 20
-0.45000038986579532
 30
0.0
 11
-25.019999932444367
 21
-3.0399999783229923
 31
0.0
  0
LINE
  8
layer1
 10
-22.495500023359021
 20
0.4499995268999078
 30
0.0
 11
-23.050000365551341
 21
0.45000030431442811
 31
0.0
  0
LINE
  8
layer1
 10
-23.050000365551341
 20
0.45000030431442811
 30
0.0
 11
-25.019999727509756
 21
3.0400000519106412
 31
0.0
  0
LINE
  8
layer1
 10
-23.050000033994486
 20
-0.45000038986579532
 30
0.0
 11
-23.050000365551341
 21
0.45000030431442811
 31
0.0
  0
LINE
  8
layer1
 10
-36.529999752758322
 20
-5.9299994862028385
 30
0.0
 11
-31.500000000000004
 21
-4.6670371024457573
 31
0.0
  0
LINE
  8
layer1
 10
-36.529999554345416
 20
5.930000256598003
 30
0.0
 11
-31.5
 21
4.667037618862496
 31
0.0
  0
LINE
  8
layer1
 10
-31.500000000000004
 20
-4.6670371024457573
 30
0.0
 11
-25.019999932444367
 21
-3.0399999783229923
 31
0.0
  0
LINE
  8
layer1
 10
-31.5
 20
4.667037618862496
 30
0.0
 11
-25.019999727509756
 21
3.0400000519106412
 31
0.0
  0
LINE
  8
layer1
 10
-31.500000000000004
 20
-4.6670371024457573
 30
0.0
 11
-31.5
 21
4.667037618862496
 31
0.0
  0
LINE
  8
layer1
 10
-19.256674327392307
 20
-11.637461581391701
 30
0.0
 11
-19.7368853917385
 21
-11.914711786333919
 31
0.0
  0
LINE
  8
layer1
 10
-19.7368853917385
 20
-11.914711786333919
 30
0.0
 11
-20.147955555020268
 21
-15.142717174954033
 31
0.0
  0
LINE
  8
layer1
 10
-19.706674254512301
 20
-10.858038989693208
 30
0.0
 11
-20.186886025965276
 21
-11.135288487528644
 31
0.0
  0
LINE
  8
layer1
 10
-20.186886025965276
 20
-11.135288487528644
 30
0.0
 11
-23.187955392658502
 21
-9.8772825912942466
 31
0.0
  0
LINE
  8
layer1
 10
-19.7368853917385
 20
-11.914711786333919
 30
0.0
 11
-20.186886025965276
 21
-11.135288487528644
 31
0.0
  0
LINE
  8
layer1
 10
-28.670908043026554
 20
-23.400530075859482
 30
0.0
 11
-24.946281667986945
 21
-19.791772691122539
 31
0.0
  0
LINE
  8
layer1
 10
-34.600907742596355
 20
-13.129468910510592
 30
0.0
 11
-29.613319028641065
 21
-11.708226861647436
 31
0.0
  0
LINE
  8
layer1
 10
-24.946281667986945
 20
-19.791772691122539
 30
0.0
 11
-20.147955555020268
 21
-15.142717174954033
 31
0.0
  0
LINE
  8
layer1
 10
-29.613319028641065
 20
-11.708226861647436
 30
0.0
 11
-23.187955392658502
 21
-9.8772825912942466
 31
0.0
  0
LINE
  8
layer1
 10
-24.946281667986945
 20
-19.791772691122539
 30
0.0
 11
-29.613319028641065
 21
-11.708226861647436
 31
0.0
  0
LINE
  8
layer1
 10
-10.858038369229501
 20
-19.706674528746799
 30
0.0
 11
-11.13528824766056
 21
-20.1868857816043
 31
0.0
  0
LINE
  8
layer1
 10
-11.13528824766056
 20
-20.1868857816043
 30
0.0
 11
-9.8772827574903275
 21
-23.18795553334326
 31
0.0
  0
LINE
  8
layer1
 10
-11.637461033665806
 20
-19.256674727612392
 30
0.0
 11
-11.91471187802269
 21
-19.736885721650847
 31
0.0
  0
LINE
  8
layer1
 10
-11.91471187802269
 20
-19.736885721650847
 30
0.0
 11
-15.142717136215502
 21
-20.147955340747863
 31
0.0
  0
LINE
  8
layer1
 10
-11.13528824766056
 20
-20.1868857816043
 30
0.0
 11
-11.91471187802269
 21
-19.736885721650847
 31
0.0
  0
LINE
  8
layer1
 10
-13.129469676898829
 20
-34.600907529229396
 30
0.0
 11
-11.708227308877454
 21
-29.613318770432702
 31
0.0
  0
LINE
  8
layer1
 10
-23.400530643834813
 20
-28.670907485998356
 30
0.0
 11
-19.791773138352553
 21
-24.946281409778571
 31
0.0
  0
LINE
  8
layer1
 10
-11.708227308877454
 20
-29.613318770432702
 30
0.0
 11
-9.8772827574903275
 21
-23.18795553334326
 31
0.0
  0
LINE
  8
layer1
 10
-19.791773138352553
 20
-24.946281409778571
 30
0.0
 11
-15.142717136215502
 21
-20.147955340747863
 31
0.0
  0
LINE
  8
layer1
 10
-11.708227308877454
 20
-29.613318770432702
 30
0.0
 11
-19.791773138352553
 21
-24.946281409778571
 31
0.0
  0
LINE
  8
layer1
 10
0.45000020135448782
 20
-22.495499950621209
 30
0.0
 11
0.45000038986579388
 21
-23.050000033994486
 31
0.0
  0
LINE
  8
layer1
 10
0.45000038986579388
 20
-23.050000033994486
 30
0.0
 11
3.0399999783229905
 21
-25.019999932444367
 31
0.0
  0
LINE
  8
layer1
 10
-0.44999952689990919
 20
-22.495500023359021
 30
0.0
 11
-0.45000030431442956
 21
-23.050000365551341
 31
0.0
  0
LINE
  8
layer1
 10
-0.45000030431442956
 20
-23.050000365551341
 30
0.0
 11
-3.0400000519106429
 21
-25.019999727509756
 31
0.0
  0
LINE
  8
layer1
 10
0.45000038986579388
 20
-23.050000033994486
 30
0.0
 11
-0.45000030431442956
 21
-23.050000365551341
 31
0.0
  0
LINE
  8
layer1
 10
5.9299994862028367
 20
-36.529999752758322
 30
0.0
 11
4.6670371024457555
 21
-31.500000000000004
 31
0.0
  0
LINE
  8
layer1
 10
-5.9300002565980048
 20
-36.529999554345416
 30
0.0
 11
-4.6670376188624978
 21
-31.5
 31
0.0
  0
LINE
  8
layer1
 10
4.6670371024457555
 20
-31.500000000000004
 30
0.0
 11
3.0399999783229905
 21
-25.019999932444367
 31
0.0
  0
LINE
  8
layer1
 10
-4.6670376188624978
 20
-31.5
 30
0.0
 11
-3.0400000519106429
 21
-25.019999727509756
 31
0.0
  0
LINE
  8
layer1
 10
4.6670371024457555
 20
-31.500000000000004
 30
0.0
 11
-4.6670376188624978
 21
-31.5
 31
0.0
  0
LINE
  8
layer1
 10
11.637461581391708
 20
-19.256674327392304
 30
0.0
 11
11.914711786333926
 21
-19.7368853917385
 31
0.0
  0
LINE
  8
layer1
 10
11.914711786333926
 20
-19.7368853917385
 30
0.0
 11
15.142717174954043
 21
-20.14795555502026
 31
0.0
  0
LINE
  8
layer1
 10
10.858038989693215
 20
-19.706674254512297
 30
0.0
 11
11.135288487528651
 21
-20.186886025965272
 31
0.0
  0
LINE
  8
layer1
 10
11.135288487528651
 20
-20.186886025965272
 30
0.0
 11
9.8772825912942555
 21
-23.187955392658498
 31
0.0
  0
LINE
  8
layer1
 10
11.914711786333926
 20
-19.7368853917385
 30
0.0
 11
11.135288487528651
 21
-20.186886025965272
 31
0.0
  0
LINE
  8
layer1
 10
23.400530075859493
 20
-28.670908043026543
 30
0.0
 11
19.791772691122549
 21
-24.946281667986938
 31
0.0
  0
LINE
  8
layer1
 10
13.129468910510603
 20
-34.600907742596355
 30
0.0
 11
11.708226861647447
 21
-29.613319028641062
 31
0.0
  0
LINE
  8
layer1
 10
19.791772691122549
 20
-24.946281667986938
 30
0.0
 11
15.142717174954043
 21
-20.14795555502026
 31
0.0
  0
LINE
  8
layer1
 10
11.708226861647447
 20
-29.613319028641062
 30
0.0
 11
9.8772825912942555
 21
-23.187955392658498
 31
0.0
  0
LINE
  8
layer1
 10
19.791772691122549
 20
-24.946281667986938
 30
0.0
 11
11.708226861647447
 21
-29.613319028641062
 31
0.0
  0
LINE
  8
layer1
 10
19.706674528746792
 20
-10.858038369229513
 30
0.0
 11
20.186885781604293
 21
-11.135288247660572
 31
0.0
  0
LINE
  8
layer1
 10
20.186885781604293
 20
-11.135288247660572
 30
0.0
 11
23.187955533343253
 21
-9.8772827574903399
 31
0.0
  0
LINE
  8
layer1
 10
19.256674727612385
 20
-11.637461033665819
 30
0.0
 11
19.73688572165084
 21
-11.914711878022702
 31
0.0
  0
LINE
  8
layer1
 10
19.73688572165084
 20
-11.914711878022702
 30
0.0
 11
20.147955340747853
 21
-15.142717136215515
 31
0.0
  0
LINE
  8
layer1
 10
20.186885781604293
 20
-11.135288247660572
 30
0.0
 11
19.73688572165084
 21
-11.914711878022702
 31
0.0
  0
LINE
  8
layer1
 10
34.600907529229382
 20
-13.12946967689885
 30
0.0
 11
29.613318770432691
 21
-11.708227308877472
 31
0.0
  0
LINE
  8
layer1
 10
28.670907485998338
 20
-23.400530643834834
 30
0.0
 11
24.946281409778557
 21
-19.791773138352568
 31
0.0
  0
LINE
  8
layer1
 10
29.613318770432691
 20
-11.708227308877472
 30
0.0
 11
23.187955533343253
 21
-9.8772827574903399
 31
0.0
  0
LINE
  8
layer1
 10
24.946281409778557
 20
-19.791773138352568
 30
0.0
 11
20.147955340747853
 21
-15.142717136215515
 31
0.0
  0
LINE
  8
layer1
 10
29.613318770432691
 20
-11.708227308877472
 30
0.0
 11
24.946281409778557
 21
-19.791773138352568
 31
0.0
  0
LINE
  8
layer1
 10
22.495499950621209
 20
0.45000020135448648
 30
0.0
 11
23.050000033994486
 21
0.45000038986579249
 31
0.0
  0
LINE
  8
layer1
 10
23.050000033994486
 20
0.45000038986579249
 30
0.0
 11
25.019999932444367
 21
3.0399999783229892
 31
0.0
  0
LINE
  8
layer1
 10
22.495500023359021
 20
-0.44999952689991052
 30
0.0
 11
23.050000365551341
 21
-0.45000030431443094
 31
0.0
  0
LINE
  8
layer1
 10
23.050000365551341
 20
-0.45000030431443094
 30
0.0
 11
25.019999727509756
 21
-3.0400000519106443
 31
0.0
  0
LINE
  8
layer1
 10
23.050000033994486
 20
0.45000038986579249
 30
0.0
 11
23.050000365551341
 21
-0.45000030431443094
 31
0.0
  0
LINE
  8
layer1
 10
36.529999752758322
 20
5.929999486202834
 30
0.0
 11
31.500000000000004
 21
4.6670371024457529
 31
0.0
  0
LINE
  8
layer1
 10
36.529999554345416
 20
-5.9300002565980074
 30
0.0
 11
31.5
 21
-4.6670376188625005
 31
0.0
  0
LINE
  8
layer1
 10
31.500000000000004
 20
4.6670371024457529
 30
0.0
 11
25.019999932444367
 21
3.0399999783229892
 31
0.0
  0
LINE
  8
layer1
 10
31.5
 20
-4.6670376188625005
 30
0.0
 11
25.019999727509756
 21
-3.0400000519106443
 31
0.0
  0
LINE
  8
layer1
 10
31.500000000000004
 20
4.6670371024457529
 30
0.0
 11
31.5
 21
-4.6670376188625005
 31
0.0
  0
LINE
  8
layer1
 10
19.256674327392304
 20
11.637461581391708
 30
0.0
 11
19.7368853917385
 21
11.914711786333926
 31
0.0
  0
LINE
  8
layer1
 10
19.7368853917385
 20
11.914711786333926
 30
0.0
 11
20.14795555502026
 21
15.142717174954043
 31
0.0
  0
LINE
  8
layer1
 10
19.706674254512297
 20
10.858038989693215
 30
0.0
 11
20.186886025965272
 21
11.135288487528651
 31
0.0
  0
LINE
  8
layer1
 10
20.186886025965272
 20
11.135288487528651
 30
0.0
 11
23.187955392658498
 21
9.8772825912942555
 31
0.0
  0
LINE
  8
layer1
 10
19.7368853917385
 20
11.914711786333926
 30
0.0
 11
20.186886025965272
 21
11.135288487528651
 31
0.0
  0
LINE
  8
layer1
 10
28.670908043026543
 20
23.400530075859493
 30
0.0
 11
24.946281667986938
 21
19.791772691122549
 31
0.0
  0
LINE
  8
layer1
 10
34.600907742596355
 20
13.129468910510603
 30
0.0
 11
29.613319028641062
 21
11.708226861647447
 31
0.0
  0
LINE
  8
layer1
 10
24.946281667986938
 20
19.791772691122549
 30
0.0
 11
20.14795555502026
 21
15.142717174954043
 31
0.0
  0
LINE
  8
layer1
 10
29.613319028641062
 20
11.708226861647447
 30
0.0
 11
23.187955392658498
 21
9.8772825912942555
 31
0.0
  0
LINE
  8
layer1
 10
24.946281667986938
 20
19.791772691122549
 30
0.0
 11
29.613319028641062
 21
11.708226861647447
 31
0.0
  0
LINE
  8
layer1
 10
10.858038369229513
 20
19.706674528746792
 30
0.0
 11
11.135288247660572
 21
20.186885781604293
 31
0.0
  0
LINE
  8
layer1
 10
11.135288247660572
 20
20.186885781604293
 30
0.0
 11
9.8772827574903399
 21
23.187955533343253
 31
0.0
  0
LINE
  8
layer1
 10
11.637461033665819
 20
19.256674727612385
 30
0.0
 11
11.914711878022702
 21
19.73688572165084
 31
0.0
  0
LINE
  8
layer1
 10
11.914711878022702
 20
19.73688572165084
 30
0.0
 11
15.142717136215515
 21
20.147955340747853
 31
0.0
  0
LINE
  8
layer1
 10
11.135288247660572
 20
20.186885781604293
 30
0.0
 11
11.914711878022702
 21
19.73688572165084
 31
0.0
  0
LINE
  8
layer1
 10
13.12946967689885
 20
34.600907529229382
 30
0.0
 11
11.708227308877472
 21
29.613318770432691
 31
0.0
  0
LINE
  8
layer1
 10
23.400530643834834
 20
28.670907485998338
 30
0.0
 11
19.791773138352568
 21
24.946281409778557
 31
0.0
  0
LINE
  8
layer1
 10
11.708227308877472
 20
29.613318770432691
 30
0.0
 11
9.8772827574903399
 21
23.187955533343253
 31
0.0
  0
LINE
  8
layer1
 10
19.791773138352568
 20
24.946281409778557
 30
0.0
 11
15.142717136215515
 21
20.147955340747853
 31
0.0
  0
LINE
  8
layer1
 10
11.708227308877472
 20
29.613318770432691
 30
0.0
 11
19.791773138352568
 21
24.946281409778557
 31
0.0
  0
ARC
  8
layer1
 10
-2.2596974247335311e-007
 20
-0.0021213854607111671
 30
0
 40
37.010279194892256
 50
80.779999041465231
 51
99.219999041465243
  0
ARC
  8
default
 10
0
 20
0.40000000000008484
 30
0
 40
43.251849671430264
 50
359.47011194465586
 51
179.47011194465586
  0
ARC
  8
default
 10
0
 20
0.40000000000008501
 30
0
 40
43.251849671430264
 50
179.47011194465586
 51
359.47011194465586
  0
ARC
  8
layer1
 10
0.0010604970348175868
 20
-0.0018372866850597802
 30
0
 40
37.010279194892256
 50
110.77999904146522
 51
129.21999904146523
  0
ARC
  8
layer1
 10
0.0018370607153208596
 20
-0.0010608884258864748
 30
0
 40
37.010279194892256
 50
140.77999904146526
 51
159.21999904146526
  0
ARC
  8
layer1
 10
0.0021213854607111671
 20
-2.2596973980881785e-007
 30
0
 40
37.010279194892256
 50
170.77999904146523
 51
189.21999904146526
  0
ARC
  8
layer1
 10
0.0018372866850597802
 20
0.0010604970348211396
 30
0
 40
37.010279194892256
 50
200.7799990414652
 51
219.2199990414652
  0
ARC
  8
layer1
 10
0.0010608884259042384
 20
0.0018370607153173069
 30
0
 40
37.010279194892263
 50
230.77999904146523
 51
249.2199990414652
  0
ARC
  8
layer1
 10
2.2596973803246101e-007
 20
0.0021213854607111671
 30
0
 40
37.010279194892256
 50
260.7799990414652
 51
279.21999904146526
  0
ARC
  8
layer1
 10
-0.0010604970348424558
 20
0.0018372866850668856
 30
0
 40
37.01027919489227
 50
290.77999904146526
 51
309.21999904146526
  0
ARC
  8
layer1
 10
-0.0018370607153421759
 20
0.0010608884258935802
 30
0
 40
37.010279194892277
 50
320.7799990414652
 51
339.2199990414652
  0
ARC
  8
layer1
 10
-0.0021213854607111671
 20
2.2596973536792575e-007
 30
0
 40
37.010279194892256
 50
350.7799990414652
 51
9.219999041465238
  0
ARC
  8
layer1
 10
-0.0018372866850668856
 20
-0.0010604970348424558
 30
0
 40
37.01027919489227
 50
20.779999041465267
 51
39.219999041465279
  0
ARC
  8
layer1
 10
-0.0010608884258935802
 20
-0.0018370607153421759
 30
0
 40
37.010279194892277
 50
50.77999904146521
 51
69.219999041465215
  0
ARC
  8
default
 10
-0.44999999985780814
 20
1.679422319952895
 30
0
 40
20.816077630668318
 50
90.000000554615042
 51
120.00000055461506
  0
ARC
  8
default
 10
-1.2294225915562933
 20
1.2294223928329018
 30
0
 40
20.816077630668314
 50
120.00000055461507
 51
150.00000055461507
  0
ARC
  8
default
 10
-1.6794223926907001
 20
0.44999972839659108
 30
0
 40
20.816077630668321
 50
150.00000055461504
 51
180.00000055461501
  0
ARC
  8
default
 10
-1.679422319952895
 20
-0.44999999985780409
 30
0
 40
20.816077630668314
 50
180.00000055461501
 51
210.00000055461501
  0
ARC
  8
default
 10
-1.2294223928328876
 20
-1.229422591556288
 30
0
 40
20.816077630668332
 50
210.00000055461504
 51
240.00000055461504
  0
ARC
  8
default
 10
-0.44999972839659463
 20
-1.6794223926907073
 30
0
 40
20.816077630668314
 50
240.00000055461504
 51
270.00000055461504
  0
ARC
  8
default
 10
0.44999999985780004
 20
-1.6794223199528773
 30
0
 40
20.816077630668332
 50
270.00000055461504
 51
300.00000055461504
  0
ARC
  8
default
 10
1.2294225915563164
 20
-1.229422392832916
 30
0
 40
20.816077630668293
 50
300.00000055461504
 51
330.00000055461504
  0
ARC
  8
default
 10
1.6794223926906859
 20
-0.4499997283965893
 30
0
 40
20.816077630668335
 50
330.00000055461504
 51
5.546150185071271e-007
  0
ARC
  8
default
 10
1.6794223199528773
 20
0.44999999985780048
 30
0
 40
20.816077630668335
 50
5.5461503837024051e-007
 51
30.000000554615042
  0
ARC
  8
default
 10
1.229422392832916
 20
1.2294225915563164
 30
0
 40
20.816077630668293
 50
30.000000554615028
 51
60.000000554615021
  0
ARC
  8
default
 10
0.4499997283965893
 20
1.6794223926906788
 30
0
 40
20.816077630668342
 50
60.000000554615035
 51
90.000000554615042
  0
ENDSEC
  0
EOF
