<?xml version="1.0" encoding="UTF-8" standalone="no"?>
<!-- Created with Inkscape (http://www.inkscape.org/) -->

<svg
   width="21.854254mm"
   height="21.854326mm"
   viewBox="0 0 21.854254 21.854326"
   version="1.1"
   id="svg1"
   xml:space="preserve"
   xmlns:inkscape="http://www.inkscape.org/namespaces/inkscape"
   xmlns:sodipodi="http://sodipodi.sourceforge.net/DTD/sodipodi-0.dtd"
   xmlns="http://www.w3.org/2000/svg"
   xmlns:svg="http://www.w3.org/2000/svg"><sodipodi:namedview
     id="namedview1"
     pagecolor="#ffffff"
     bordercolor="#000000"
     borderopacity="0.25"
     inkscape:showpageshadow="2"
     inkscape:pageopacity="0.0"
     inkscape:pagecheckerboard="0"
     inkscape:deskcolor="#d1d1d1"
     inkscape:document-units="mm" /><defs
     id="defs1" /><g
     inkscape:label="Réteg 1"
     inkscape:groupmode="layer"
     id="layer1"
     transform="translate(-90.383753,-94.981282)"><g
       id="g3"
       transform="matrix(0.26458333,0,0,0.26458333,90.51604,-180.29676)"><g
         inkscape:label="default"
         id="g28"><path
           style="fill:none;stroke:#000000"
           d="M 22.6772,1122.52 H 69.7614"
           id="path5-9" /><path
           style="fill:none;stroke:#000000"
           d="m 0,1099.84 4e-6,-47.08"
           id="path6-6" /><path
           style="fill:none;stroke:#000000"
           d="m 46.0043,1075.18 -6.4192,6.42"
           id="path7-6" /><path
           style="fill:none;stroke:#000000"
           d="m 47.3391,1076.52 -6.4184,6.41"
           id="path8-56" /><path
           style="fill:none;stroke:#000000"
           d="m 41.1837,1056.89 -8.1734,-4.47"
           id="path9-66" /><path
           style="fill:none;stroke:#000000"
           d="m 65.6285,1081.34 4.468,8.17"
           id="path10-9" /><path
           style="fill:none;stroke:#000000"
           d="M 66.0037,1121.58 H 56.9262"
           id="path11-5" /><path
           style="fill:none;stroke:#000000"
           d="m 0.943873,1056.52 5.25e-4,9.07"
           id="path12-0" /><path
           style="fill:none;stroke:#000000"
           d="m 75.5276,1105.23 -2.6201,-8.93"
           id="path13-4" /><path
           style="fill:none;stroke:#000000"
           d="m 17.2851,1046.99 8.9388,2.62"
           id="path14-3" /><path
           d="m 46.436496,1053.545 a 16.643056,16.643056 0 0 0 22.5382,22.5382"
           style="fill:none;stroke:#000000"
           id="path15-7" /><path
           d="m 81.608035,1106.5828 a 16.645013,16.645013 0 0 0 -11.846589,15.9369"
           style="fill:none;stroke:#000000"
           id="path16-4" /><path
           d="m 4e-6,1052.7582 a 16.6411,16.6411 0 0 0 15.936911,-11.8465"
           style="fill:none;stroke:#000000"
           id="path17-6" /><path
           d="M 46.436496,1053.545 A 83.149609,83.149609 0 0 0 15.936915,1040.9117"
           style="fill:none;stroke:#000000"
           id="path18-9" /><path
           d="M 81.608035,1106.5828 A 83.149609,83.149609 0 0 0 68.974696,1076.0832"
           style="fill:none;stroke:#000000"
           id="path19-3" /><path
           d="M 22.677165,1122.5197 A 22.677165,22.677165 0 0 0 0,1099.8425"
           style="fill:none;stroke:#000000"
           id="path20-9" /><path
           d="m 41.183667,1056.8911 a 15.850335,15.850335 0 0 0 4.820606,18.2895"
           style="fill:none;stroke:#000000"
           id="path21-7" /><path
           d="m 47.339112,1076.5154 a 15.850335,15.850335 0 0 0 18.289425,4.8206"
           style="fill:none;stroke:#000000"
           id="path22-7" /><path
           d="m 33.010269,1052.4232 a 25.068932,25.068932 0 0 0 6.574825,29.1758"
           style="fill:none;stroke:#000000"
           id="path23-6" /><path
           d="m 40.920677,1082.9346 a 25.068932,25.068932 0 0 0 29.17584,6.5748"
           style="fill:none;stroke:#000000"
           id="path24-4" /><path
           d="m 75.527633,1105.2346 a 15.854056,15.854056 0 0 0 -9.523891,16.3412"
           style="fill:none;stroke:#000000"
           id="path25-2" /><path
           d="m 0.943873,1056.5159 a 15.854056,15.854056 0 0 0 16.34126,-9.5238"
           style="fill:none;stroke:#000000"
           id="path26-63" /><path
           d="m 72.907506,1096.2957 a 25.068934,25.068934 0 0 0 -15.981332,25.2796"
           style="fill:none;stroke:#000000"
           id="path27-4" /><path
           d="m 0.944398,1065.5935 a 25.063049,25.063049 0 0 0 25.27954,-15.9813"
           style="fill:none;stroke:#000000"
           id="path28-8" /></g><g
         inkscape:label="0"
         id="g29" /></g></g></svg>
