  0
SECTION
  2
HEADER
  9
$INSBASE
 10
0.0000
 20
0.0000
  9
$EXTMIN
 10
-1.5291184319935816
 20
-1.5291194319935788
  9
$EXTMAX
 10
44.779118431993581
 20
44.779118431993595
  9
$LIMMIN
 10
-1.5291184319935816
 20
-1.5291194319935788
  9
$LIMMAX
 10
44.779118431993581
 20
44.779118431993595
  9
$TEXTSTYLE
  7
STANDARD
  9
$CLAYER
  8
default
  0
ENDSEC
  0
SECTION
  2
TABLES
  0
TABLE
  2
LTYPE
 70
4948253
  0
LTYPE
  2
CONTINUOUS
 70
    64
  3
Solid line
 72
    65
 73
     0
 40
0.0
  0
ENDTAB
  0
TABLE
  2
LAYER
 70
     5
  0
LAYER
  2
default
 70
    64
 62
     7
  6
CONTINUOUS
  0
ENDTAB
  0
TABLE
  2
STYLE
 70
     1
  0
STYLE
  2
STANDARD
 70
     0
 40
0.0
 41
1.0
 50
0.0
 71
     0
 42
0.2
  3
txt
  4

  0
ENDTAB
  0
TABLE
  2
VIEW
 70
     0
  0
ENDTAB
  0
ENDSEC
  0
SECTION
  2
BLOCKS
  0
ENDSEC
  0
SECTION
  2
ENTITIES
  0
LINE
  8
default
 10
0
 20
22.5
 30
0.0
 11
0
 21
43.25
 31
0.0
  0
LINE
  8
default
 10
22.300000000000001
 20
0
 30
0.0
 11
22.5
 21
0
 31
0.0
  0
LINE
  8
default
 10
22.5
 20
0
 30
0.0
 11
43.25
 21
0
 31
0.0
  0
LINE
  8
default
 10
5.3875970000000004
 20
21.845452999999999
 30
0.0
 11
5.5311120000000003
 21
22.381059
 31
0.0
  0
LINE
  8
default
 10
5.5311120000000003
 20
22.381059
 30
0.0
 11
3.5392379999999992
 21
24.954274000000002
 31
0.0
  0
LINE
  8
default
 10
3.5392379999999992
 20
24.954274000000002
 30
0.0
 11
3.726719999999998
 21
36.820067000000002
 31
0.0
  0
LINE
  8
default
 10
15.588523
 20
16.224919
 30
0.0
 11
15.980613
 21
16.617008999999999
 31
0.0
  0
LINE
  8
default
 10
15.980613
 20
16.617008999999999
 30
0.0
 11
15.542206999999999
 21
19.841415999999999
 31
0.0
  0
LINE
  8
default
 10
15.542206999999999
 20
19.841415999999999
 30
0.0
 11
21.637467999999998
 21
30.023754
 31
0.0
  0
LINE
  8
default
 10
21.612515999999999
 20
6.2569299999999979
 30
0.0
 11
22.148122000000001
 21
6.4004459999999979
 31
0.0
  0
LINE
  8
default
 10
22.148122000000001
 20
6.4004459999999979
 30
0.0
 11
23.380654
 21
9.4120670000000004
 31
0.0
  0
LINE
  8
default
 10
23.380654
 20
9.4120670000000004
 30
0.0
 11
33.750473
 21
15.182600000000001
 31
0.0
  0
LINE
  8
default
 10
6.2569299999999979
 20
21.612515999999999
 30
0.0
 11
6.4004459999999979
 21
22.148122000000001
 31
0.0
  0
LINE
  8
default
 10
6.4004459999999979
 20
22.148122000000001
 30
0.0
 11
9.4120670000000004
 21
23.380654
 31
0.0
  0
LINE
  8
default
 10
9.4120670000000004
 20
23.380654
 30
0.0
 11
15.182600000000001
 21
33.750473
 31
0.0
  0
LINE
  8
default
 10
16.224919
 20
15.588523
 30
0.0
 11
16.617008999999999
 21
15.980613
 31
0.0
  0
LINE
  8
default
 10
16.617008999999999
 20
15.980613
 30
0.0
 11
19.841415999999999
 21
15.542206999999999
 31
0.0
  0
LINE
  8
default
 10
19.841415999999999
 20
15.542206999999999
 30
0.0
 11
30.023754
 21
21.637467999999998
 31
0.0
  0
LINE
  8
default
 10
21.845452999999999
 20
5.3875970000000004
 30
0.0
 11
22.381059
 21
5.5311120000000003
 31
0.0
  0
LINE
  8
default
 10
22.381059
 20
5.5311120000000003
 30
0.0
 11
24.954274000000002
 21
3.5392379999999992
 31
0.0
  0
LINE
  8
default
 10
24.954274000000002
 20
3.5392379999999992
 30
0.0
 11
36.820067000000002
 21
3.726719999999998
 31
0.0
  0
LINE
  8
default
 10
1.4000000000000001e-015
 20
22.300000000000001
 30
0.0
 11
0
 21
22.5
 31
0.0
  0
LINE
  8
default
 10
3.5392379999999992
 20
24.954274000000002
 30
0.0
 11
6.4756524539505369
 21
24.167464012338922
 31
0.0
  0
LINE
  8
default
 10
6.4756524539505369
 20
24.167464012338922
 30
0.0
 11
9.4120670000000004
 21
23.380654
 31
0.0
  0
LINE
  8
default
 10
9.5784164450395721
 20
35.74713530974455
 30
0.0
 11
6.4756524539505369
 21
24.167464012338922
 31
0.0
  0
LINE
  8
default
 10
15.542206999999999
 20
19.841415999999999
 30
0.0
 11
17.6918115
 21
17.6918115
 31
0.0
  0
LINE
  8
default
 10
17.6918115
 20
17.6918115
 30
0.0
 11
19.841415999999999
 21
15.542206999999999
 31
0.0
  0
LINE
  8
default
 10
17.6918115
 20
17.6918115
 30
0.0
 11
26.168719864704961
 21
26.168719864704961
 31
0.0
  0
LINE
  8
default
 10
23.380654
 20
9.4120670000000004
 30
0.0
 11
24.167463999999999
 21
6.4756524999999989
 31
0.0
  0
LINE
  8
default
 10
24.167463999999999
 20
6.4756524999999989
 30
0.0
 11
24.954274000000002
 21
3.5392379999999992
 31
0.0
  0
LINE
  8
default
 10
24.167463999999999
 20
6.4756524999999989
 30
0.0
 11
35.747135297405627
 21
9.578416491089035
 31
0.0
  0
LINE
  8
default
 10
0
 20
22.100000000000001
 30
0.0
 11
9.9999999999999995e-007
 21
18.457716000000001
 31
0.0
  0
LINE
  8
default
 10
22.100000000000001
 20
0
 30
0.0
 11
18.457716000000001
 21
-9.9999999999999995e-007
 31
0.0
  0
LINE
  8
default
 10
6
 20
0
 30
0.0
 11
18.457716000000001
 21
-9.9999999999999995e-007
 31
0.0
  0
LINE
  8
default
 10
0
 20
6
 30
0.0
 11
9.9999999999999995e-007
 21
18.457716000000001
 31
0.0
  0
LINE
  8
default
 10
12.008673
 20
12.712771999999999
 30
0.0
 11
9.8807100000000005
 21
10.586569000000001
 31
0.0
  0
LINE
  8
default
 10
12.712771999999999
 20
12.008673
 30
0.0
 11
10.586569000000001
 21
9.8807100000000005
 31
0.0
  0
LINE
  8
default
 10
10.803034
 20
16.831353
 30
0.0
 11
8.0407650000000004
 21
18.312457999999999
 31
0.0
  0
LINE
  8
default
 10
16.831353
 20
10.803034
 30
0.0
 11
18.312457999999999
 21
8.0407650000000004
 31
0.0
  0
LINE
  8
default
 10
17.480701
 20
0.49787300000000001
 30
0.0
 11
14.472552
 21
0.49911800000000001
 31
0.0
  0
LINE
  8
default
 10
0.49787300000000001
 20
17.480701
 30
0.0
 11
0.49911800000000001
 21
14.472552
 31
0.0
  0
LINE
  8
default
 10
19.540462000000002
 20
4.2626650000000001
 30
0.0
 11
18.634543000000001
 21
7.2631839999999999
 31
0.0
  0
LINE
  8
default
 10
4.2626650000000001
 20
19.540462000000002
 30
0.0
 11
7.2631839999999999
 21
18.634543000000001
 31
0.0
  0
LINE
  8
default
 10
4.3860939999999999
 20
21.558343000000001
 30
0.0
 11
4.0870420000000003
 21
20.088456999999998
 31
0.0
  0
LINE
  8
default
 10
10.833318
 20
19.147825000000001
 30
0.0
 11
10.094683
 21
17.842292
 31
0.0
  0
LINE
  8
default
 10
4.9489229999999997
 20
21.436140999999999
 30
0.0
 11
4.6114959999999998
 21
19.974585999999999
 31
0.0
  0
LINE
  8
default
 10
10.328374
 20
19.424847
 30
0.0
 11
9.6241669999999999
 21
18.100425999999999
 31
0.0
  0
LINE
  8
default
 10
18.345488
 20
12.142613000000001
 30
0.0
 11
17.094659
 21
11.314708
 31
0.0
  0
LINE
  8
default
 10
21.199870000000001
 20
5.8792439999999999
 30
0.0
 11
19.754424
 21
5.4783860000000004
 31
0.0
  0
LINE
  8
default
 10
18.657057999999999
 20
11.658223
 30
0.0
 11
17.384986000000001
 21
10.863344
 31
0.0
  0
LINE
  8
default
 10
21.038705
 20
6.4321770000000003
 30
0.0
 11
19.604247000000001
 21
5.9936189999999998
 31
0.0
  0
ARC
  8
default
 10
0
 20
-3.5527136788005009e-015
 30
0
 40
43.250000000000007
 50
4.7064855402003483e-015
 51
90
  0
ARC
  8
default
 10
-0.00054927322929465561
 20
-0.0020490425187418282
 30
0
 40
37.010279194892277
 50
65.77999904146516
 51
74.999999041465173
  0
ARC
  8
default
 10
-0.00054927322918629784
 20
-0.0020490425187773553
 30
0
 40
37.010279194892291
 50
74.999999041465344
 51
84.219999041465343
  0
ARC
  8
default
 10
-0.001498769289522528
 20
-0.0014987692895367388
 30
0
 40
37.010278122464108
 50
35.780000000000022
 51
45.000000000000021
  0
ARC
  8
default
 10
-0.0014987692895402915
 20
-0.0014987692895331861
 30
0
 40
37.010278122464115
 50
44.999999999999993
 51
54.219999999999992
  0
ARC
  8
default
 10
-0.0020490425187702499
 20
-0.00054927322921871635
 30
0
 40
37.010279194892284
 50
5.780000958534715
 51
15.000001032338902
  0
ARC
  8
default
 10
-0.002049042518756039
 20
-0.0005492732292662339
 30
0
 40
37.010279194892284
 50
15.000001032338982
 51
24.220000958534794
  0
ARC
  8
default
 10
0.0011777812104787344
 20
0.0096804441961317877
 30
0
 40
22.490319586643103
 50
76.14300048615678
 51
90.003000486156779
  0
ARC
  8
default
 10
-0.0032871161942988891
 20
-0.0056957734470373111
 30
0
 40
22.50638572990999
 50
46.150003364023817
 51
73.850003364023806
  0
ARC
  8
default
 10
-0.0056957734470373111
 20
-0.0032871161942997773
 30
0
 40
22.50638572990999
 50
16.149996635976198
 51
43.849996635976197
  0
ARC
  8
default
 10
-0.022661355383149839
 20
-0.0027514710868299375
 30
0
 40
22.52266152344928
 50
0.0069995138432295207
 51
13.84699951384323
  0
ARC
  8
default
 10
-3.5527136788005009e-015
 20
-1.7763568394002505e-015
 30
0
 40
22.300000000000004
 50
4.5640246550149114e-015
 51
89.999999999999986
  0
ARC
  8
default
 10
16.165303561411569
 20
16.165303561411569
 30
0
 40
4.4034752474683856
 50
151.75000000000003
 51
298.25
  0
ARC
  8
default
 10
22.861709024698037
 20
-0.0003846364067987551
 30
0
 40
4.4039930414075199
 50
106.75500890514625
 51
179.99500890514628
  0
ARC
  8
default
 10
0.00038491499369616613
 20
22.860673766784679
 30
0
 40
4.4029577835223739
 50
269.99500410634397
 51
343.25500410634402
  0
ARC
  8
default
 10
0
 20
0
 30
0
 40
22.100000000000005
 50
0
 51
90
  0
ARC
  8
default
 10
-8.8817841970012523e-016
 20
-8.8817841970012523e-016
 30
0
 40
6.0000000000000009
 50
8.4814791505693754e-015
 51
90
  0
ARC
  8
default
 10
14.176669350321895
 20
15.58316798777995
 30
0
 40
3.5971351519886348
 50
159.69642360223617
 51
232.93642360223618
  0
ARC
  8
default
 10
15.583167987779952
 20
14.176669350321895
 30
0
 40
3.5971351519886348
 50
217.0635763977638
 51
290.30357639776383
  0
ARC
  8
default
 10
14.158405264462463
 20
15.687354584033681
 30
0
 40
6.6570782141935503
 50
156.7756392006994
 51
230.01563920069938
  0
ARC
  8
default
 10
15.687354584033681
 20
14.158405264462463
 30
0
 40
6.6570782141935503
 50
219.98436079930062
 51
293.2243607993006
  0
ARC
  8
default
 10
21.043382323090544
 20
0.99454454133938786
 30
0
 40
3.5971350864089922
 50
114.69642366085071
 51
187.93642366085064
  0
ARC
  8
default
 10
0.99454454133938786
 20
21.043382323090544
 30
0
 40
3.5971350864089922
 50
262.06357633914934
 51
335.30357633914929
  0
ARC
  8
default
 10
21.104139387211497
 20
1.0811306454902612
 30
0
 40
6.6570781874432861
 50
111.77563834821751
 51
185.01563834821752
  0
ARC
  8
default
 10
1.0811306454902605
 20
21.104139387211497
 30
0
 40
6.6570781874432861
 50
264.98436165178248
 51
338.22436165178249
  0
ARC
  8
default
 10
-3.4201004872613794e-006
 20
-1.4878331100476316e-007
 30
0
 40
20.500002025431503
 50
60.49999216263241
 51
61.999992301315245
  0
ARC
  8
default
 10
1.5324105930858423e-006
 20
-2.7870449770261985e-006
 30
0
 40
20.500002029815185
 50
62.000007984696154
 51
63.115290222783273
  0
ARC
  8
default
 10
-3.2941620992765763e-005
 20
5.1306794297545366e-006
 30
0
 40
20.500001953278819
 50
76.999908530858079
 51
78.499909025195834
  0
ARC
  8
default
 10
1.2771991428905949e-006
 20
-2.6849964065434051e-006
 30
0
 40
20.500002054201985
 50
63.115289457608633
 51
66.789840524224061
  0
ARC
  8
default
 10
-0.097754287889048719
 20
-0.49030349033185416
 30
0
 40
22.499949056040744
 50
78.504989578352436
 51
78.944989578352434
  0
ARC
  8
default
 10
0.025943987503190158
 20
0.041960684715711238
 30
0
 40
21.950703503078092
 50
56.045006877394734
 51
60.50500687739472
  0
ARC
  8
default
 10
2.226797708004824e-006
 20
-3.0921941487349613e-006
 30
0
 40
20.500002054201968
 50
66.78984341199218
 51
77.000009474269035
  0
ARC
  8
default
 10
1.1638002916924961e-006
 20
4.7127328173246497e-007
 30
0
 40
21.999998820639384
 50
62.000002924286527
 51
77.00000292428652
  0
ARC
  8
default
 10
1.0825075307252519e-006
 20
-1.0924636537623655e-005
 30
0
 40
20.500001406512606
 50
15.500028537517805
 51
17.000027959531494
  0
ARC
  8
default
 10
-2.3100705277556699e-006
 20
1.7198744561852664e-007
 30
0
 40
20.500001406509888
 50
16.999995528311075
 51
31.999993955332741
  0
ARC
  8
default
 10
-2.8570283383544393e-006
 20
7.8658024982303232e-007
 30
0
 40
20.500001544671957
 50
31.999991688522599
 51
33.499993839487246
  0
ARC
  8
default
 10
-0.04823674470940631
 20
-0.011373507510954006
 30
0
 40
22.049521873599886
 50
11.05498196903331
 51
15.494981969033311
  0
ARC
  8
default
 10
0.39766879211429895
 20
0.26549736590639306
 30
0
 40
21.521851456242832
 50
33.494923444407107
 51
33.954923444407108
  0
ARC
  8
default
 10
1.3011045894018025e-006
 20
-2.4976547630117807e-006
 30
0
 40
21.999999691362856
 50
17.000005675440239
 51
32.000005675440242
  0
ENDSEC
  0
EOF
