  0
SECTION
  2
HEADER
  9
$INSBASE
 10
0.0000
 20
0.0000
  9
$EXTMIN
 10
-1.5291184319935816
 20
-1.5291194319935788
  9
$EXTMAX
 10
44.779118431993581
 20
44.779118431993595
  9
$LIMMIN
 10
-1.5291184319935816
 20
-1.5291194319935788
  9
$LIMMAX
 10
44.779118431993581
 20
44.779118431993595
  9
$TEXTSTYLE
  7
STANDARD
  9
$CLAYER
  8
default
  0
ENDSEC
  0
SECTION
  2
TABLES
  0
TABLE
  2
LTYPE
 70
4948253
  0
LTYPE
  2
CONTINUOUS
 70
    64
  3
Solid line
 72
    65
 73
     0
 40
0.0
  0
ENDTAB
  0
TABLE
  2
LAYER
 70
     5
  0
LAYER
  2
default
 70
    64
 62
     7
  6
CONTINUOUS
  0
ENDTAB
  0
TABLE
  2
STYLE
 70
     1
  0
STYLE
  2
STANDARD
 70
     0
 40
0.0
 41
1.0
 50
0.0
 71
     0
 42
0.2
  3
txt
  4

  0
ENDTAB
  0
TABLE
  2
VIEW
 70
     0
  0
ENDTAB
  0
ENDSEC
  0
SECTION
  2
BLOCKS
  0
ENDSEC
  0
SECTION
  2
ENTITIES
  0
LINE
  8
default
 10
0
 20
22.5
 30
0.0
 11
0
 21
43.25
 31
0.0
  0
LINE
  8
default
 10
22.300000000000001
 20
0
 30
0.0
 11
22.5
 21
0
 31
0.0
  0
LINE
  8
default
 10
22.5
 20
0
 30
0.0
 11
43.25
 21
0
 31
0.0
  0
LINE
  8
default
 10
5.3875970000000004
 20
21.845452999999999
 30
0.0
 11
5.5311120000000003
 21
22.381059
 31
0.0
  0
LINE
  8
default
 10
5.5311120000000003
 20
22.381059
 30
0.0
 11
3.5392379999999992
 21
24.954274000000002
 31
0.0
  0
LINE
  8
default
 10
3.5392379999999992
 20
24.954274000000002
 30
0.0
 11
3.726719999999998
 21
36.820067000000002
 31
0.0
  0
LINE
  8
default
 10
15.588523
 20
16.224919
 30
0.0
 11
15.980613
 21
16.617008999999999
 31
0.0
  0
LINE
  8
default
 10
15.980613
 20
16.617008999999999
 30
0.0
 11
15.542206999999999
 21
19.841415999999999
 31
0.0
  0
LINE
  8
default
 10
15.542206999999999
 20
19.841415999999999
 30
0.0
 11
21.637467999999998
 21
30.023754
 31
0.0
  0
LINE
  8
default
 10
21.612515999999999
 20
6.2569299999999979
 30
0.0
 11
22.148122000000001
 21
6.4004459999999979
 31
0.0
  0
LINE
  8
default
 10
22.148122000000001
 20
6.4004459999999979
 30
0.0
 11
23.380654
 21
9.4120670000000004
 31
0.0
  0
LINE
  8
default
 10
23.380654
 20
9.4120670000000004
 30
0.0
 11
33.750473
 21
15.182600000000001
 31
0.0
  0
LINE
  8
default
 10
6.2569299999999979
 20
21.612515999999999
 30
0.0
 11
6.4004459999999979
 21
22.148122000000001
 31
0.0
  0
LINE
  8
default
 10
6.4004459999999979
 20
22.148122000000001
 30
0.0
 11
9.4120670000000004
 21
23.380654
 31
0.0
  0
LINE
  8
default
 10
9.4120670000000004
 20
23.380654
 30
0.0
 11
15.182600000000001
 21
33.750473
 31
0.0
  0
LINE
  8
default
 10
16.224919
 20
15.588523
 30
0.0
 11
16.617008999999999
 21
15.980613
 31
0.0
  0
LINE
  8
default
 10
16.617008999999999
 20
15.980613
 30
0.0
 11
19.841415999999999
 21
15.542206999999999
 31
0.0
  0
LINE
  8
default
 10
19.841415999999999
 20
15.542206999999999
 30
0.0
 11
30.023754
 21
21.637467999999998
 31
0.0
  0
LINE
  8
default
 10
21.845452999999999
 20
5.3875970000000004
 30
0.0
 11
22.381059
 21
5.5311120000000003
 31
0.0
  0
LINE
  8
default
 10
22.381059
 20
5.5311120000000003
 30
0.0
 11
24.954274000000002
 21
3.5392379999999992
 31
0.0
  0
LINE
  8
default
 10
24.954274000000002
 20
3.5392379999999992
 30
0.0
 11
36.820067000000002
 21
3.726719999999998
 31
0.0
  0
LINE
  8
default
 10
1.4000000000000001e-015
 20
22.300000000000001
 30
0.0
 11
0
 21
22.5
 31
0.0
  0
LINE
  8
default
 10
3.5392379999999992
 20
24.954274000000002
 30
0.0
 11
6.4756524539505369
 21
24.167464012338922
 31
0.0
  0
LINE
  8
default
 10
6.4756524539505369
 20
24.167464012338922
 30
0.0
 11
9.4120670000000004
 21
23.380654
 31
0.0
  0
LINE
  8
default
 10
9.5784164450395721
 20
35.74713530974455
 30
0.0
 11
6.4756524539505369
 21
24.167464012338922
 31
0.0
  0
LINE
  8
default
 10
15.542206999999999
 20
19.841415999999999
 30
0.0
 11
17.6918115
 21
17.6918115
 31
0.0
  0
LINE
  8
default
 10
17.6918115
 20
17.6918115
 30
0.0
 11
19.841415999999999
 21
15.542206999999999
 31
0.0
  0
LINE
  8
default
 10
17.6918115
 20
17.6918115
 30
0.0
 11
26.168719864704961
 21
26.168719864704961
 31
0.0
  0
LINE
  8
default
 10
23.380654
 20
9.4120670000000004
 30
0.0
 11
24.167463999999999
 21
6.4756524999999989
 31
0.0
  0
LINE
  8
default
 10
24.167463999999999
 20
6.4756524999999989
 30
0.0
 11
24.954274000000002
 21
3.5392379999999992
 31
0.0
  0
LINE
  8
default
 10
24.167463999999999
 20
6.4756524999999989
 30
0.0
 11
35.747135297405627
 21
9.578416491089035
 31
0.0
  0
LINE
  8
default
 10
0
 20
22.100000000000001
 30
0.0
 11
9.9999999999999995e-007
 21
18.457716000000001
 31
0.0
  0
LINE
  8
default
 10
22.100000000000001
 20
0
 30
0.0
 11
18.457716000000001
 21
-9.9999999999999995e-007
 31
0.0
  0
LINE
  8
default
 10
6
 20
0
 30
0.0
 11
18.457716000000001
 21
-9.9999999999999995e-007
 31
0.0
  0
LINE
  8
default
 10
0
 20
6
 30
0.0
 11
9.9999999999999995e-007
 21
18.457716000000001
 31
0.0
  0
LINE
  8
default
 10
12.008673
 20
12.712771999999999
 30
0.0
 11
9.8807100000000005
 21
10.586569000000001
 31
0.0
  0
LINE
  8
default
 10
12.712771999999999
 20
12.008673
 30
0.0
 11
10.586569000000001
 21
9.8807100000000005
 31
0.0
  0
LINE
  8
default
 10
10.803034
 20
16.831353
 30
0.0
 11
8.0407650000000004
 21
18.312457999999999
 31
0.0
  0
LINE
  8
default
 10
16.831353
 20
10.803034
 30
0.0
 11
18.312457999999999
 21
8.0407650000000004
 31
0.0
  0
LINE
  8
default
 10
17.480701
 20
0.49787300000000001
 30
0.0
 11
14.472552
 21
0.49911800000000001
 31
0.0
  0
LINE
  8
default
 10
0.49787300000000001
 20
17.480701
 30
0.0
 11
0.49911800000000001
 21
14.472552
 31
0.0
  0
LINE
  8
default
 10
19.540462000000002
 20
4.2626650000000001
 30
0.0
 11
18.634543000000001
 21
7.2631839999999999
 31
0.0
  0
LINE
  8
default
 10
4.2626650000000001
 20
19.540462000000002
 30
0.0
 11
7.2631839999999999
 21
18.634543000000001
 31
0.0
  0
LINE
  8
default
 10
4.5740569999999998
 20
21.519247
 30
0.0
 11
4.2621900000000004
 21
20.052026000000001
 31
0.0
  0
LINE
  8
default
 10
11
 20
19.052558000000001
 30
0.0
 11
10.25
 21
17.753520999999999
 31
0.0
  0
LINE
  8
default
 10
4.9489229999999997
 20
21.436140999999999
 30
0.0
 11
4.6114959999999998
 21
19.974585999999999
 31
0.0
  0
LINE
  8
default
 10
10.328374
 20
19.424847
 30
0.0
 11
9.6241669999999999
 21
18.100425999999999
 31
0.0
  0
LINE
  8
default
 10
18.450752000000001
 20
11.982059
 30
0.0
 11
17.192747000000001
 21
11.165100000000001
 31
0.0
  0
LINE
  8
default
 10
21.250368000000002
 20
5.6940189999999999
 30
0.0
 11
19.801480000000002
 21
5.30579
 31
0.0
  0
LINE
  8
default
 10
18.657057999999999
 20
11.658223
 30
0.0
 11
17.384986000000001
 21
10.863344
 31
0.0
  0
LINE
  8
default
 10
21.038705
 20
6.4321770000000003
 30
0.0
 11
19.604247000000001
 21
5.9936189999999998
 31
0.0
  0
ARC
  8
default
 10
0
 20
-3.5527136788005009e-015
 30
0
 40
43.250000000000007
 50
4.7064855402003483e-015
 51
90
  0
ARC
  8
default
 10
-0.00054927322929465561
 20
-0.0020490425187418282
 30
0
 40
37.010279194892277
 50
65.77999904146516
 51
74.999999041465173
  0
ARC
  8
default
 10
-0.00054927322918629784
 20
-0.0020490425187773553
 30
0
 40
37.010279194892291
 50
74.999999041465344
 51
84.219999041465343
  0
ARC
  8
default
 10
-0.001498769289522528
 20
-0.0014987692895367388
 30
0
 40
37.010278122464108
 50
35.780000000000022
 51
45.000000000000021
  0
ARC
  8
default
 10
-0.0014987692895402915
 20
-0.0014987692895331861
 30
0
 40
37.010278122464115
 50
44.999999999999993
 51
54.219999999999992
  0
ARC
  8
default
 10
-0.0020490425187702499
 20
-0.00054927322921871635
 30
0
 40
37.010279194892284
 50
5.780000958534715
 51
15.000001032338902
  0
ARC
  8
default
 10
-0.002049042518756039
 20
-0.0005492732292662339
 30
0
 40
37.010279194892284
 50
15.000001032338982
 51
24.220000958534794
  0
ARC
  8
default
 10
0.0011777812104787344
 20
0.0096804441961317877
 30
0
 40
22.490319586643103
 50
76.14300048615678
 51
90.003000486156779
  0
ARC
  8
default
 10
-0.0032871161942988891
 20
-0.0056957734470373111
 30
0
 40
22.50638572990999
 50
46.150003364023817
 51
73.850003364023806
  0
ARC
  8
default
 10
-0.0056957734470373111
 20
-0.0032871161942997773
 30
0
 40
22.50638572990999
 50
16.149996635976198
 51
43.849996635976197
  0
ARC
  8
default
 10
-0.022661355383149839
 20
-0.0027514710868299375
 30
0
 40
22.52266152344928
 50
0.0069995138432295207
 51
13.84699951384323
  0
ARC
  8
default
 10
-3.5527136788005009e-015
 20
-1.7763568394002505e-015
 30
0
 40
22.300000000000004
 50
4.5640246550149114e-015
 51
89.999999999999986
  0
ARC
  8
default
 10
16.165303561411569
 20
16.165303561411569
 30
0
 40
4.4034752474683856
 50
151.75000000000003
 51
298.25
  0
ARC
  8
default
 10
22.861709024698037
 20
-0.0003846364067987551
 30
0
 40
4.4039930414075199
 50
106.75500890514625
 51
179.99500890514628
  0
ARC
  8
default
 10
0.00038491499369616613
 20
22.860673766784679
 30
0
 40
4.4029577835223739
 50
269.99500410634397
 51
343.25500410634402
  0
ARC
  8
default
 10
0
 20
0
 30
0
 40
22.100000000000005
 50
0
 51
90
  0
ARC
  8
default
 10
-8.8817841970012523e-016
 20
-8.8817841970012523e-016
 30
0
 40
6.0000000000000009
 50
8.4814791505693754e-015
 51
90
  0
ARC
  8
default
 10
14.176669350321895
 20
15.58316798777995
 30
0
 40
3.5971351519886348
 50
159.69642360223617
 51
232.93642360223618
  0
ARC
  8
default
 10
15.583167987779952
 20
14.176669350321895
 30
0
 40
3.5971351519886348
 50
217.0635763977638
 51
290.30357639776383
  0
ARC
  8
default
 10
14.158405264462463
 20
15.687354584033681
 30
0
 40
6.6570782141935503
 50
156.7756392006994
 51
230.01563920069938
  0
ARC
  8
default
 10
15.687354584033681
 20
14.158405264462463
 30
0
 40
6.6570782141935503
 50
219.98436079930062
 51
293.2243607993006
  0
ARC
  8
default
 10
21.043382323090544
 20
0.99454454133938786
 30
0
 40
3.5971350864089922
 50
114.69642366085071
 51
187.93642366085064
  0
ARC
  8
default
 10
0.99454454133938786
 20
21.043382323090544
 30
0
 40
3.5971350864089922
 50
262.06357633914934
 51
335.30357633914929
  0
ARC
  8
default
 10
21.104139387211497
 20
1.0811306454902612
 30
0
 40
6.6570781874432861
 50
111.77563834821751
 51
185.01563834821752
  0
ARC
  8
default
 10
1.0811306454902605
 20
21.104139387211497
 30
0
 40
6.6570781874432861
 50
264.98436165178248
 51
338.22436165178249
  0
ARC
  8
default
 10
-1.6420872661626618e-006
 20
2.6989798094234629e-006
 30
0
 40
20.499998676279233
 50
59.99999256448951
 51
61.99999295238608
  0
ARC
  8
default
 10
-8.6968854056124201e-006
 20
6.4513762332296665e-006
 30
0
 40
20.499998675139491
 50
61.999970619159299
 51
62.028036875244858
  0
ARC
  8
default
 10
-3.9381471350630193e-005
 20
1.0065829389560577e-005
 30
0
 40
20.499998593280676
 50
76.999887890485411
 51
77.99988567091691
  0
ARC
  8
default
 10
3.0789779277284879e-006
 20
1.8245944488626265e-007
 30
0
 40
20.499998671778712
 50
63.576526821185752
 51
77.00000973616018
  0
ARC
  8
default
 10
-0.046741409251588095
 20
-0.22932594981609
 30
0
 40
22.234032546805675
 50
78.005050023617088
 51
78.945050023617085
  0
ARC
  8
default
 10
-0.029567199563896196
 20
-0.047378498386201784
 30
0
 40
22.055813901374872
 50
56.055019728659126
 51
59.995019728659116
  0
ARC
  8
default
 10
3.2515074668282296e-006
 20
1.0005413031421995e-007
 30
0
 40
20.499998680219331
 50
62.028074694846943
 51
63.406672884246099
  0
ARC
  8
default
 10
6.6962678388904351e-006
 20
-1.6244513716401343e-006
 30
0
 40
20.499998680219484
 50
63.406683651130265
 51
63.576538122343059
  0
ARC
  8
default
 10
1.1638002916924961e-006
 20
4.7127328173246497e-007
 30
0
 40
21.999998820639384
 50
62.000002924286527
 51
77.00000292428652
  0
ARC
  8
default
 10
9.1961490724656869e-006
 20
-3.2662741675792972e-005
 30
0
 40
20.50000000302985
 50
15.000093279132969
 51
17.000092691054476
  0
ARC
  8
default
 10
-1.0219169084280111e-006
 20
7.5903273089039658e-007
 30
0
 40
20.500000003007038
 50
16.999995011881467
 51
31.999994471762342
  0
ARC
  8
default
 10
-2.0347938683329403e-005
 20
3.0670711149483054e-005
 30
0
 40
20.500000541662757
 50
31.999894951027517
 51
32.999896079225138
  0
ARC
  8
default
 10
0.054133816353974851
 20
0.012528583213377686
 30
0
 40
21.944468025541255
 50
11.044984903812427
 51
15.004984903812428
  0
ARC
  8
default
 10
-0.19522100311499457
 20
-0.12908600254791835
 30
0
 40
22.234031179829596
 50
33.004989252032658
 51
33.944989252032663
  0
ARC
  8
default
 10
1.3011045894018025e-006
 20
-2.4976547630117807e-006
 30
0
 40
21.999999691362856
 50
17.000005675440239
 51
32.000005675440242
  0
ENDSEC
  0
EOF
